<svg width="233" height="220" viewBox="0 0 233 220" fill="none" xmlns="http://www.w3.org/2000/svg">
<path fill-rule="evenodd" clip-rule="evenodd" d="M102.498 4.9168C110.682 -1.63894 122.318 -1.63893 130.501 4.91681L150.829 21.2014L184.476 24.7167C196.068 25.9277 204.964 34.8263 205.303 45.5491L206.158 72.585L226.861 94.4342C235.046 103.072 235.046 116.603 226.861 125.241L206.189 147.057L205.342 173.863C205.003 184.586 196.106 193.484 184.514 194.695L150.878 198.21L130.501 214.534C122.318 221.09 110.682 221.09 102.498 214.534L82.1711 198.249L48.5241 194.734C36.9319 193.523 28.0353 184.624 27.6964 173.902L26.849 147.097L6.13862 125.24C-2.0462 116.603 -2.04621 103.072 6.13861 94.4342L26.7957 72.6338L27.6578 45.3637C27.9967 34.6409 36.8933 25.7423 48.4855 24.5313L82.4429 20.9836L102.498 4.9168Z" fill="#F0F8ED"/>
<mask id="path-2-inside-1_301_5367" fill="white">
<path fill-rule="evenodd" clip-rule="evenodd" d="M103.418 23.5762C111.034 17.4746 121.864 17.4746 129.48 23.5761L145.108 36.096L171.258 38.828C182.047 39.9552 190.328 48.2372 190.643 58.217L191.3 78.9933L207.185 95.7576C214.803 103.797 214.803 116.39 207.185 124.429L191.326 141.166L190.675 161.751C190.36 171.73 182.08 180.013 171.291 181.14L145.15 183.871L129.48 196.424C121.864 202.525 111.034 202.525 103.418 196.424L87.7898 183.904L61.6395 181.172C50.8505 180.045 42.5703 171.763 42.2548 161.783L41.6042 141.2L25.7133 124.429C18.0956 116.39 18.0956 103.797 25.7133 95.7575L41.5598 79.034L42.2227 58.0623C42.5382 48.0825 50.8184 39.8004 61.6074 38.6732L88.0167 35.9142L103.418 23.5762Z"/>
</mask>
<path d="M129.48 23.5761L131.889 20.57V20.57L129.48 23.5761ZM103.418 23.5762L105.826 26.5823V26.5823L103.418 23.5762ZM145.108 36.096L142.7 39.1021C143.277 39.5639 143.974 39.8503 144.708 39.927L145.108 36.096ZM171.258 38.828L171.659 34.997L171.258 38.828ZM190.643 58.217L194.493 58.0953V58.0953L190.643 58.217ZM191.3 78.9933L187.45 79.115C187.48 80.0582 187.855 80.9577 188.504 81.6427L191.3 78.9933ZM207.185 95.7576L209.981 93.1082V93.1082L207.185 95.7576ZM207.185 124.429L209.981 127.079L207.185 124.429ZM191.326 141.166L188.53 138.517C187.881 139.202 187.506 140.101 187.476 141.044L191.326 141.166ZM190.675 161.751L186.826 161.629V161.629L190.675 161.751ZM171.291 181.14L170.891 177.309L171.291 181.14ZM145.15 183.871L144.75 180.04C144.015 180.117 143.318 180.403 142.742 180.865L145.15 183.871ZM129.48 196.424L127.072 193.418L129.48 196.424ZM103.418 196.424L105.826 193.418L103.418 196.424ZM87.7898 183.904L90.1981 180.898C89.6217 180.436 88.9246 180.15 88.19 180.073L87.7898 183.904ZM61.6395 181.172L61.2392 185.003H61.2392L61.6395 181.172ZM42.2548 161.783L38.4049 161.905L42.2548 161.783ZM41.6042 141.2L45.4541 141.078C45.4243 140.135 45.0492 139.235 44.4001 138.55L41.6042 141.2ZM25.7133 124.429L22.9173 127.079H22.9173L25.7133 124.429ZM25.7133 95.7575L28.5093 98.4069L25.7133 95.7575ZM41.5598 79.034L44.3558 81.6834C45.0049 80.9984 45.3799 80.0989 45.4097 79.1557L41.5598 79.034ZM42.2227 58.0623L46.0727 58.184L42.2227 58.0623ZM61.6074 38.6732L62.0076 42.5042L61.6074 38.6732ZM88.0167 35.9142L88.4169 39.7452C89.1515 39.6684 89.8485 39.3821 90.425 38.9203L88.0167 35.9142ZM131.889 20.57C122.865 13.3409 110.033 13.3409 101.009 20.57L105.826 26.5823C112.035 21.6084 120.863 21.6084 127.072 26.5823L131.889 20.57ZM147.517 33.0898L131.889 20.57L127.072 26.5823L142.7 39.1021L147.517 33.0898ZM171.659 34.997L145.509 32.265L144.708 39.927L170.858 42.659L171.659 34.997ZM194.493 58.0953C194.109 45.9495 184.113 36.2982 171.659 34.997L170.858 42.659C179.982 43.6122 186.546 50.525 186.793 58.3387L194.493 58.0953ZM195.15 78.8716L194.493 58.0953L186.793 58.3387L187.45 79.115L195.15 78.8716ZM209.981 93.1082L194.096 76.3439L188.504 81.6427L204.389 98.407L209.981 93.1082ZM209.981 127.079C219.007 117.554 219.007 102.633 209.981 93.1082L204.389 98.407C210.599 104.961 210.599 115.226 204.389 121.78L209.981 127.079ZM194.122 143.815L209.981 127.079L204.389 121.78L188.53 138.517L194.122 143.815ZM194.525 161.872L195.176 141.288L187.476 141.044L186.826 161.629L194.525 161.872ZM171.691 184.971C184.146 183.67 194.141 174.018 194.525 161.872L186.826 161.629C186.579 169.443 180.014 176.356 170.891 177.309L171.691 184.971ZM145.55 187.702L171.691 184.971L170.891 177.309L144.75 180.04L145.55 187.702ZM142.742 180.865L127.072 193.418L131.889 199.43L147.558 186.877L142.742 180.865ZM127.072 193.418C120.863 198.392 112.035 198.392 105.826 193.418L101.009 199.43C110.033 206.659 122.865 206.659 131.889 199.43L127.072 193.418ZM105.826 193.418L90.1981 180.898L85.3815 186.91L101.009 199.43L105.826 193.418ZM61.2392 185.003L87.3896 187.735L88.19 180.073L62.0397 177.341L61.2392 185.003ZM38.4049 161.905C38.7888 174.051 48.7847 183.702 61.2392 185.003L62.0397 177.341C52.9162 176.388 46.3517 169.475 46.1047 161.661L38.4049 161.905ZM37.7542 141.321L38.4049 161.905L46.1047 161.661L45.4541 141.078L37.7542 141.321ZM22.9173 127.079L38.8082 143.849L44.4001 138.55L28.5093 121.78L22.9173 127.079ZM22.9173 93.1082C13.8918 102.633 13.8918 117.554 22.9173 127.079L28.5093 121.78C22.2994 115.226 22.2994 104.961 28.5093 98.4069L22.9173 93.1082ZM38.7638 76.3847L22.9173 93.1082L28.5093 98.4069L44.3558 81.6834L38.7638 76.3847ZM38.3728 57.9406L37.7099 78.9123L45.4097 79.1557L46.0727 58.184L38.3728 57.9406ZM61.2072 34.8422C48.7527 36.1434 38.7567 45.7947 38.3728 57.9406L46.0727 58.184C46.3197 50.3702 52.8842 43.4574 62.0076 42.5042L61.2072 34.8422ZM87.6164 32.0832L61.2072 34.8422L62.0076 42.5042L88.4169 39.7452L87.6164 32.0832ZM101.009 20.57L85.6084 32.908L90.425 38.9203L105.826 26.5823L101.009 20.57Z" fill="#69BD46" mask="url(#path-2-inside-1_301_5367)"/>
<path d="M82.5968 99.6108L68 114.244C68 114.244 99.3676 146 103.094 146C106.821 146 164 88.9442 164 88.9442L149.093 74L103.094 120.159L82.5968 99.6108Z" fill="#69BD46" stroke="white" stroke-width="0.223942"/>
</svg>
