<svg width="234" height="40" viewBox="0 0 234 40" fill="none" xmlns="http://www.w3.org/2000/svg">
<path d="M12.1284 24.3742V28.4599H29.7136V24.3742H12.1284Z" fill="white"/>
<path d="M12.1289 10.757V14.8428L29.7141 14.8428V10.757H12.1289Z" fill="white"/>
<path d="M12.1284 17.5652V21.651H25.5927V17.5652H12.1284Z" fill="white"/>
<path d="M20.4211 39.4894C9.16057 39.4894 0 30.6322 0 19.7447C0 8.85715 9.16057 0 20.4211 0C31.6816 0 40.8421 8.85715 40.8421 19.7447C40.8421 30.6322 31.6816 39.4894 20.4211 39.4894ZM20.4211 1.36193C9.93781 1.36193 1.40858 9.60866 1.40858 19.7447C1.40858 29.8807 9.93781 38.1288 20.4211 38.1288C30.9043 38.1288 39.4349 29.882 39.4349 19.7447C39.4349 9.60734 30.9057 1.36193 20.4211 1.36193Z" fill="url(#paint0_linear_23_1105)"/>
<path d="M67.6953 29.4028H52.8423V10.0879H67.5516V14.0273H57.5645V17.6121H66.4183V21.5371H57.5645V25.4765H67.6953V29.4028ZM90.7889 29.4028H84.6181L77.5294 10.0879H82.6813L87.7041 24.6947L92.6831 10.0879H97.8349L90.7889 29.4028ZM123.31 29.4028H108.457V10.0879H123.166V14.0273H113.179V17.6121H122.033V21.5371H113.179V25.4765H123.31V29.4028ZM139.3 29.4028H134.579V10.0879H143.835C148.039 10.0879 151.253 12.9185 151.253 17.0004C151.253 19.5041 149.832 21.7507 147.767 22.9596L152.76 29.3883H147.092L142.945 23.9261H139.3V29.4028ZM139.3 14.0287V19.9879H143.505C145.299 19.9879 146.418 18.6655 146.418 17.0017C146.418 15.21 145.241 14.0287 143.505 14.0287H139.3ZM167.645 10.0879L174.533 18.1804L181.393 10.0879H185.382V29.4028H180.661V17.3564L174.835 23.9696H174.26L168.377 17.3564V29.4028H163.656V10.0879H167.645ZM202.161 29.4028H197.44V10.0879H202.161V29.4028ZM218.223 29.4028H212.699L220.09 19.5172L213.073 10.0866H218.597L222.874 16.1025L227.15 10.0866H232.675L225.656 19.5172L233.047 29.4028H227.521L222.872 22.8028L218.223 29.4028Z" fill="white"/>
<defs>
<linearGradient id="paint0_linear_23_1105" x1="0" y1="19.745" x2="40.8427" y2="19.745" gradientUnits="userSpaceOnUse">
<stop stop-color="#C0FF00"/>
<stop offset="0.5061" stop-color="#00F6F9"/>
<stop offset="1" stop-color="#FF004E"/>
</linearGradient>
</defs>
</svg>
