<svg width="20" height="20" viewBox="0 0 20 20" fill="none" xmlns="http://www.w3.org/2000/svg">
<path d="M15.8696 4.13043L19 1M19 1V4.91304M19 1H15.087M1 19L4.13043 15.8696M1 19H4.91304M1 19V15.087M15.8696 15.868L19 19M19 19L15.087 19M19 19V15.087M1 1L4.13043 4.13043M1 1V4.91304M1 1H4.91304M6.47826 5.69565H13.5217C13.954 5.69565 14.3043 6.04604 14.3043 6.47826V13.5217C14.3043 13.954 13.954 14.3043 13.5217 14.3043H6.47826C6.04604 14.3043 5.69565 13.954 5.69565 13.5217V6.47826C5.69565 6.04604 6.04604 5.69565 6.47826 5.69565Z" stroke="white" stroke-linecap="round" stroke-linejoin="round"/>
</svg>
