<svg width="22" height="22" viewBox="0 0 22 22" fill="none" xmlns="http://www.w3.org/2000/svg">
<path d="M11.3428 16.7366C9.10049 16.7366 6.85789 16.725 4.61592 16.7434C3.90736 16.7492 3.49878 16.2283 3.50197 15.6244C3.51667 12.8384 3.51443 10.0521 3.50325 7.26584C3.50101 6.65552 3.94985 6.16365 4.58238 6.17979C5.47974 6.2027 6.37806 6.18334 7.27606 6.18818C7.39585 6.18882 7.48083 6.15171 7.54504 6.05553C7.64887 5.89996 7.7495 5.74214 7.85619 5.58851C7.96289 5.4352 8.06736 5.27899 8.18779 5.13698C8.34784 4.94849 8.55357 4.86264 8.8069 4.86361C10.4972 4.86845 12.1868 4.86878 13.8764 4.86329C14.1422 4.86232 14.3537 4.95495 14.5204 5.15376C14.6265 5.28028 14.7201 5.41777 14.8143 5.55365C14.8843 5.65467 14.9539 5.75698 15.0105 5.86607C15.1367 6.10878 15.3136 6.20109 15.5983 6.19367C16.4426 6.17172 17.2879 6.18463 18.1325 6.18624C18.7756 6.18721 19.1836 6.60324 19.1836 7.25713C19.1839 10.0541 19.1839 12.851 19.1832 15.648C19.1829 16.3319 18.7791 16.7369 18.1009 16.7369C15.8487 16.7369 13.5956 16.7366 11.3428 16.7366ZM11.3377 16.0808C13.5959 16.0808 15.8542 16.0808 18.1127 16.0808C18.4169 16.0808 18.5261 15.9711 18.5264 15.6651C18.5268 12.8788 18.5268 10.0925 18.5261 7.30619C18.5261 6.93018 18.4341 6.84078 18.0661 6.8411C17.1467 6.84207 16.2276 6.83981 15.3082 6.84368C15.1044 6.84433 14.9284 6.78075 14.7923 6.6339C14.6696 6.50157 14.56 6.35536 14.4553 6.20754C14.3409 6.04649 14.2377 5.87705 14.1316 5.71019C14.0444 5.57334 13.9329 5.51654 13.762 5.5175C12.2264 5.52493 10.6904 5.5359 9.15511 5.51169C8.78965 5.50588 8.57625 5.6253 8.40502 5.93353C8.27117 6.17462 8.09802 6.39635 7.92328 6.61066C7.78559 6.77946 7.59232 6.85595 7.36966 6.84239C7.285 6.83723 7.19971 6.84175 7.11473 6.84175C6.25922 6.84175 5.40371 6.84078 4.5482 6.84239C4.28209 6.84304 4.1722 6.95697 4.16772 7.22485C4.16677 7.27326 4.16677 7.32135 4.16677 7.36977C4.16677 10.1238 4.16677 12.8778 4.16677 15.6322C4.16677 15.984 4.26292 16.0811 4.61113 16.0811C6.85277 16.0808 9.09537 16.0808 11.3377 16.0808ZM14.4501 10.8561C14.1527 9.35468 12.9838 8.29574 11.4674 8.17116C10.7403 8.11145 10.0668 8.30026 9.4554 8.70369C9.29472 8.80956 9.24328 8.96222 9.30526 9.11843C9.37842 9.30304 9.61002 9.38792 9.85441 9.23268C11.3706 8.27024 13.3445 9.07518 13.777 10.8248C13.8119 10.9655 13.8259 11.1111 13.8496 11.2547C13.8333 11.2628 13.817 11.2712 13.801 11.2792C13.648 11.1172 13.4988 10.951 13.3403 10.7941C13.1969 10.6518 12.9992 10.6531 12.8701 10.7848C12.7398 10.9178 12.7407 11.1101 12.8832 11.2589C13.0976 11.4826 13.318 11.7004 13.5359 11.9205C13.7492 12.1365 13.9626 12.3527 14.1805 12.5731C14.63 12.121 15.0724 11.6814 15.5076 11.2347C15.6328 11.1062 15.6187 10.9048 15.4996 10.7832C15.3737 10.6547 15.1785 10.6483 15.0415 10.7816C14.8696 10.9487 14.7073 11.1256 14.5163 11.3238C14.4907 11.1398 14.4779 10.9965 14.4501 10.8561ZM8.23635 11.9341C8.53377 13.4355 9.70267 14.4945 11.2191 14.6191C11.9462 14.6788 12.6196 14.49 13.2311 14.0865C13.3918 13.9807 13.4432 13.828 13.3812 13.6718C13.3081 13.4872 13.0765 13.4023 12.8321 13.5575C11.3159 14.52 9.342 13.715 8.90945 11.9654C8.87463 11.8247 8.86057 11.6791 8.83693 11.5355C8.85322 11.5274 8.86952 11.519 8.88549 11.511C9.03851 11.673 9.1877 11.8392 9.34615 11.9961C9.48959 12.1384 9.68733 12.1371 9.81639 12.0054C9.94673 11.8725 9.94577 11.6801 9.8033 11.5313C9.58894 11.3076 9.36851 11.0898 9.15064 10.8697C8.93724 10.6537 8.72384 10.4375 8.50597 10.2171C8.05649 10.6692 7.61404 11.1088 7.17894 11.5555C7.05371 11.684 7.06777 11.8854 7.18693 12.007C7.31279 12.1355 7.50798 12.142 7.64503 12.0087C7.8169 11.8415 7.97919 11.6646 8.17022 11.4664C8.19578 11.6504 8.20856 11.794 8.23635 11.9341Z" fill="rgba(255, 255, 255, 0.25)"/>
</svg>

