<svg width="32" height="32" viewBox="0 0 32 32" fill="none" xmlns="http://www.w3.org/2000/svg">
<path fill-rule="evenodd" clip-rule="evenodd" d="M16.5 8C13.4585 8 11 10.444 11 13.45C11 14.9041 11.5741 16.2249 12.5119 17.2031C13.1549 17.8738 13.8121 18.687 14.1652 19.6286C14.2539 19.5487 14.3713 19.5 14.5 19.5H14.5H14.5001H14.5002H14.5003H14.5004H14.5006H14.5007H14.5009H14.5011H14.5014H14.5016H14.5019H14.5022H14.5026H14.5029H14.5033H14.5037H14.5041H14.5045H14.505H14.5055H14.506H14.5065H14.507H14.5076H14.5082H14.5088H14.5094H14.5101H14.5108H14.5115H14.5122H14.5129H14.5137H14.5145H14.5153H14.5161H14.517H14.5178H14.5187H14.5196H14.5206H14.5215H14.5225H14.5235H14.5245H14.5255H14.5266H14.5277H14.5288H14.5299H14.531H14.5322H14.5334H14.5346H14.5358H14.5371H14.5383H14.5396H14.5409H14.5422H14.5436H14.5449H14.5463H14.5477H14.5491H14.5506H14.552H14.5535H14.555H14.5566H14.5581H14.5597H14.5612H14.5628H14.5645H14.5661H14.5678H14.5694H14.5711H14.5729H14.5746H14.5763H14.5781H14.5799H14.5817H14.5836H14.5854H14.5873H14.5892H14.5911H14.593H14.595H14.5969H14.5989H14.6009H14.6029H14.605H14.607H14.6091H14.6112H14.6133H14.6154H14.6176H14.6197H14.6219H14.6241H14.6263H14.6286H14.6308H14.6331H14.6354H14.6377H14.64H14.6424H14.6448H14.6471H14.6495H14.6519H14.6544H14.6568H14.6593H14.6618H14.6643H14.6668H14.6694H14.6719H14.6745H14.6771H14.6797H14.6823H14.6849H14.6876H14.6903H14.693H14.6957H14.6984H14.7011H14.7039H14.7067H14.7095H14.7123H14.7151H14.7179H14.7208H14.7237H14.7266H14.7295H14.7324H14.7353H14.7383H14.7413H14.7442H14.7472H14.7503H14.7533H14.7563H14.7594H14.7625H14.7656H14.7687H14.7718H14.775H14.7781H14.7813H14.7845H14.7877H14.7909H14.7942H14.7974H14.8007H14.804H14.8073H14.8106H14.8139H14.8173H14.8206H14.824H14.8274H14.8308H14.8342H14.8376H14.8411H14.8446H14.848H14.8515H14.855H14.8586H14.8621H14.8656H14.8692H14.8728H14.8764H14.88H14.8836H14.8872H14.8909H14.8945H14.8982H14.9019H14.9056H14.9093H14.9131H14.9168H14.9206H14.9244H14.9281H14.9319H14.9358H14.9396H14.9434H14.9473H14.9512H14.955H14.9589H14.9628H14.9668H14.9707H14.9746H14.9786H14.9826H14.9866H14.9906H14.9946H14.9986H15.0026H15.0067H15.0107H15.0148H15.0189H15.023H15.0271H15.0313H15.0354H15.0395H15.0437H15.0479H15.0521H15.0563H15.0605H15.0647H15.0689H15.0732H15.0775H15.0817H15.086H15.0903H15.0946H15.0989H15.1033H15.1076H15.112H15.1163H15.1207H15.1251H15.1295H15.1339H15.1383H15.1428H15.1472H15.1517H15.1561H15.1606H15.1651H15.1696H15.1741H15.1786H15.1832H15.1877H15.1923H15.1969H15.2014H15.206H15.2106H15.2152H15.2198H15.2245H15.2291H15.2338H15.2384H15.2431H15.2478H15.2525H15.2572H15.2619H15.2666H15.2714H15.2761H15.2808H15.2856H15.2904H15.2952H15.3H15.3048H15.3096H15.3144H15.3192H15.3241H15.3289H15.3338H15.3386H15.3435H15.3484H15.3533H15.3582H15.3631H15.3681H15.373H15.3779H15.3829H15.3878H15.3928H15.3978H15.4028H15.4078H15.4128H15.4178H15.4228H15.4279H15.4329H15.4379H15.443H15.4481H15.4531H15.4582H15.4633H15.4684H15.4735H15.4786H15.4838H15.4889H15.494H15.4992H15.5043H15.5095H15.5147H15.5198H15.525H15.5302H15.5354H15.5406H15.5459H15.5511H15.5563H15.5616H15.5668H15.5721H15.5773H15.5826H15.5879H15.5932H15.5984H15.6037H15.609H15.6144H15.6197H15.625H15.6303H15.6357H15.641H15.6464H15.6517H15.6571H15.6625H15.6679H15.6732H15.6786H15.684H15.6894H15.6949H15.7003H15.7057H15.7111H15.7166H15.722H15.7275H15.7329H15.7384H15.7438H15.7493H15.7548H15.7603H15.7658H15.7713H15.7768H15.7823H15.7878H15.7933H15.7988H15.8044H15.8099H15.8154H15.821H15.8265H15.8321H15.8376H15.8432H15.8488H15.8544H15.8599H15.8655H15.8711H15.8767H15.8823H15.8879H15.8935H15.8991H15.9048H15.9104H15.916H15.9217H15.9273H15.9329H15.9386H15.9442H15.9499H15.9555H15.9612H15.9669H15.9726H15.9782H15.9839H15.9896H15.9953H16V15C16 14.7239 16.2239 14.5 16.5 14.5C16.7761 14.5 17 14.7239 17 15V19.5H17.0049H17.0106H17.0163H17.022H17.0276H17.0333H17.039H17.0447H17.0503H17.056H17.0616H17.0673H17.0729H17.0785H17.0842H17.0898H17.0954H17.101H17.1067H17.1123H17.1179H17.1235H17.1291H17.1347H17.1403H17.1458H17.1514H17.157H17.1625H17.1681H17.1737H17.1792H17.1848H17.1903H17.1958H17.2014H17.2069H17.2124H17.2179H17.2234H17.2289H17.2344H17.2399H17.2454H17.2509H17.2563H17.2618H17.2673H17.2727H17.2782H17.2836H17.2891H17.2945H17.2999H17.3053H17.3107H17.3161H17.3215H17.3269H17.3323H17.3377H17.3431H17.3484H17.3538H17.3592H17.3645H17.3698H17.3752H17.3805H17.3858H17.3911H17.3964H17.4017H17.407H17.4123H17.4176H17.4228H17.4281H17.4334H17.4386H17.4438H17.4491H17.4543H17.4595H17.4647H17.4699H17.4751H17.4803H17.4855H17.4907H17.4958H17.501H17.5061H17.5113H17.5164H17.5215H17.5266H17.5317H17.5368H17.5419H17.547H17.5521H17.5571H17.5622H17.5673H17.5723H17.5773H17.5823H17.5874H17.5924H17.5974H17.6023H17.6073H17.6123H17.6173H17.6222H17.6272H17.6321H17.637H17.6419H17.6468H17.6517H17.6566H17.6615H17.6664H17.6712H17.6761H17.6809H17.6857H17.6906H17.6954H17.7002H17.705H17.7097H17.7145H17.7193H17.724H17.7288H17.7335H17.7382H17.7429H17.7476H17.7523H17.757H17.7617H17.7664H17.771H17.7756H17.7803H17.7849H17.7895H17.7941H17.7987H17.8033H17.8078H17.8124H17.8169H17.8215H17.826H17.8305H17.835H17.8395H17.844H17.8484H17.8529H17.8573H17.8618H17.8662H17.8706H17.875H17.8794H17.8838H17.8881H17.8925H17.8968H17.9012H17.9055H17.9098H17.9141H17.9184H17.9226H17.9269H17.9312H17.9354H17.9396H17.9438H17.948H17.9522H17.9564H17.9606H17.9647H17.9688H17.973H17.9771H17.9812H17.9853H17.9893H17.9934H17.9975H18.0015H18.0055H18.0095H18.0135H18.0175H18.0215H18.0254H18.0294H18.0333H18.0373H18.0412H18.0451H18.0489H18.0528H18.0567H18.0605H18.0643H18.0681H18.0719H18.0757H18.0795H18.0833H18.087H18.0907H18.0945H18.0982H18.1018H18.1055H18.1092H18.1128H18.1165H18.1201H18.1237H18.1273H18.1309H18.1344H18.138H18.1415H18.145H18.1485H18.152H18.1555H18.159H18.1624H18.1658H18.1693H18.1727H18.1761H18.1794H18.1828H18.1861H18.1895H18.1928H18.1961H18.1994H18.2026H18.2059H18.2091H18.2123H18.2155H18.2187H18.2219H18.2251H18.2282H18.2313H18.2345H18.2376H18.2406H18.2437H18.2468H18.2498H18.2528H18.2558H18.2588H18.2618H18.2647H18.2677H18.2706H18.2735H18.2764H18.2792H18.2821H18.2849H18.2878H18.2906H18.2934H18.2961H18.2989H18.3016H18.3044H18.3071H18.3098H18.3124H18.3151H18.3177H18.3204H18.323H18.3256H18.3281H18.3307H18.3332H18.3357H18.3382H18.3407H18.3432H18.3456H18.3481H18.3505H18.3529H18.3553H18.3576H18.36H18.3623H18.3646H18.3669H18.3692H18.3714H18.3737H18.3759H18.3781H18.3803H18.3825H18.3846H18.3867H18.3888H18.3909H18.393H18.3951H18.3971H18.3991H18.4011H18.4031H18.4051H18.407H18.4089H18.4108H18.4127H18.4146H18.4165H18.4183H18.4201H18.4219H18.4237H18.4254H18.4272H18.4289H18.4306H18.4323H18.4339H18.4355H18.4372H18.4388H18.4404H18.4419H18.4435H18.445H18.4465H18.448H18.4494H18.4509H18.4523H18.4537H18.4551H18.4564H18.4578H18.4591H18.4604H18.4617H18.463H18.4642H18.4654H18.4666H18.4678H18.469H18.4701H18.4712H18.4723H18.4734H18.4745H18.4755H18.4765H18.4775H18.4785H18.4794H18.4804H18.4813H18.4822H18.483H18.4839H18.4847H18.4855H18.4863H18.4871H18.4878H18.4885H18.4892H18.4899H18.4906H18.4912H18.4918H18.4924H18.493H18.4935H18.494H18.4945H18.495H18.4955H18.4959H18.4963H18.4967H18.4971H18.4975H18.4978H18.4981H18.4984H18.4986H18.4989H18.4991H18.4993H18.4994H18.4996H18.4997H18.4998H18.4999H18.5H18.5C18.6287 19.5 18.7461 19.5487 18.8348 19.6286C19.1879 18.687 19.8451 17.8738 20.4881 17.2031C21.4259 16.2249 22 14.9041 22 13.45C22 10.444 19.5415 8 16.5 8ZM16.5 20.5H16.4943H16.4884H16.4825H16.4767H16.4708H16.465H16.4591H16.4532H16.4474H16.4415H16.4357H16.4298H16.424H16.4181H16.4123H16.4064H16.4005H16.3947H16.3888H16.383H16.3771H16.3713H16.3654H16.3596H16.3538H16.3479H16.3421H16.3362H16.3304H16.3245H16.3187H16.3129H16.307H16.3012H16.2954H16.2895H16.2837H16.2779H16.2721H16.2662H16.2604H16.2546H16.2488H16.243H16.2371H16.2313H16.2255H16.2197H16.2139H16.2081H16.2023H16.1965H16.1907H16.1849H16.1791H16.1733H16.1675H16.1617H16.156H16.1502H16.1444H16.1386H16.1329H16.1271H16.1213H16.1156H16.1098H16.104H16.0983H16.0925H16.0868H16.081H16.0753H16.0696H16.0638H16.0581H16.0524H16.0466H16.0409H16.0352H16.0295H16.0238H16.0181H16.0124H16.0067H16.001H15.9953H15.9896H15.9839H15.9782H15.9726H15.9669H15.9612H15.9555H15.9499H15.9442H15.9386H15.9329H15.9273H15.9217H15.916H15.9104H15.9048H15.8991H15.8935H15.8879H15.8823H15.8767H15.8711H15.8655H15.8599H15.8544H15.8488H15.8432H15.8376H15.8321H15.8265H15.821H15.8154H15.8099H15.8044H15.7988H15.7933H15.7878H15.7823H15.7768H15.7713H15.7658H15.7603H15.7548H15.7493H15.7438H15.7384H15.7329H15.7275H15.722H15.7166H15.7111H15.7057H15.7003H15.6949H15.6894H15.684H15.6786H15.6732H15.6679H15.6625H15.6571H15.6517H15.6464H15.641H15.6357H15.6303H15.625H15.6197H15.6144H15.609H15.6037H15.5984H15.5932H15.5879H15.5826H15.5773H15.5721H15.5668H15.5616H15.5563H15.5511H15.5459H15.5406H15.5354H15.5302H15.525H15.5198H15.5147H15.5095H15.5043H15.4992H15.494H15.4889H15.4838H15.4786H15.4735H15.4684H15.4633H15.4582H15.4531H15.4481H15.443H15.4379H15.4329H15.4279H15.4228H15.4178H15.4128H15.4078H15.4028H15.3978H15.3928H15.3878H15.3829H15.3779H15.373H15.3681H15.3631H15.3582H15.3533H15.3484H15.3435H15.3386H15.3338H15.3289H15.3241H15.3192H15.3144H15.3096H15.3048H15.3H15.2952H15.2904H15.2856H15.2808H15.2761H15.2714H15.2666H15.2619H15.2572H15.2525H15.2478H15.2431H15.2384H15.2338H15.2291H15.2245H15.2198H15.2152H15.2106H15.206H15.2014H15.1969H15.1923H15.1877H15.1832H15.1786H15.1741H15.1696H15.1651H15.1606H15.1561H15.1517H15.1472H15.1428H15.1383H15.1339H15.1295H15.1251H15.1207H15.1163H15.112H15.1076H15.1033H15.0989H15.0946H15.0903H15.086H15.0817H15.0775H15.0732H15.0689H15.0647H15.0605H15.0563H15.0521H15.0479H15.0437H15.0395H15.0354H15.0313H15.0271H15.023H15.0189H15.0148H15.0107H15.0067H15.0026H14.9986H14.9946H14.9906H14.9866H14.9826H14.9786H14.9746H14.9707H14.9668H14.9628H14.9589H14.955H14.9512H14.9473H14.9434H14.9396H14.9358H14.9319H14.9281H14.9244H14.9206H14.9168H14.9131H14.9093H14.9056H14.9019H14.8982H14.8945H14.8909H14.8872H14.8836H14.88H14.8764H14.8728H14.8692H14.8656H14.8621H14.8586H14.855H14.8515H14.848H14.8446H14.8411H14.8376H14.8342H14.8308H14.8274H14.824H14.8206H14.8173H14.8139H14.8106H14.8073H14.804H14.8007H14.7974H14.7942H14.7909H14.7877H14.7845H14.7813H14.7781H14.775H14.7718H14.7687H14.7656H14.7625H14.7594H14.7563H14.7533H14.7503H14.7472H14.7442H14.7413H14.7383H14.7353H14.7324H14.7295H14.7266H14.7237H14.7208H14.7179H14.7151H14.7123H14.7095H14.7067H14.7039H14.7011H14.6984H14.6957H14.693H14.6903H14.6876H14.6849H14.6823H14.6797H14.6771H14.6745H14.6719H14.6694H14.6668H14.6643H14.6618H14.6593H14.6568H14.6544H14.6519H14.6495H14.6471H14.6448H14.6424H14.64H14.6377H14.6354H14.6331H14.6308H14.6286H14.6263H14.6241H14.6219H14.6197H14.6176H14.6154H14.6133H14.6112H14.6091H14.607H14.605H14.6029H14.6009H14.5989H14.5969H14.595H14.593H14.5911H14.5892H14.5873H14.5854H14.5836H14.5817H14.5799H14.5781H14.5763H14.5746H14.5729H14.5711H14.5694H14.5678H14.5661H14.5645H14.5628H14.5612H14.5597H14.5581H14.5566H14.555H14.5535H14.552H14.5506H14.5491H14.5477H14.5463H14.5449H14.5436H14.5422H14.5409H14.5396H14.5383H14.5371H14.5358H14.5346H14.5334H14.5322H14.531H14.5299H14.5288H14.5277H14.5266H14.5255H14.5245H14.5235H14.5225H14.5215H14.5206H14.5196H14.5187H14.5178H14.517H14.5161H14.5153H14.5145H14.5137H14.5129H14.5122H14.5115H14.5108H14.5101H14.5094H14.5088H14.5082H14.5076H14.507H14.5065H14.506H14.5055H14.505H14.5045H14.5041H14.5037H14.5033H14.5029H14.5026H14.5022H14.5019H14.5016H14.5014H14.5011H14.5009H14.5007H14.5006H14.5004H14.5003H14.5002H14.5001H14.5H14.5C14.4619 20.5 14.4248 20.4957 14.3891 20.4877C14.4149 20.6644 14.4286 20.8449 14.4286 21.0291V21.9286C14.4286 23.0726 15.356 24 16.5 24C17.644 24 18.5714 23.0726 18.5714 21.9286V21.0291C18.5714 20.8449 18.5851 20.6644 18.6109 20.4877C18.5752 20.4957 18.5381 20.5 18.5 20.5H18.5H18.4999H18.4998H18.4997H18.4996H18.4994H18.4993H18.4991H18.4989H18.4986H18.4984H18.4981H18.4978H18.4974H18.4971H18.4967H18.4963H18.4959H18.4955H18.495H18.4945H18.494H18.4935H18.493H18.4924H18.4918H18.4912H18.4906H18.4899H18.4892H18.4885H18.4878H18.4871H18.4863H18.4855H18.4847H18.4839H18.483H18.4822H18.4813H18.4804H18.4794H18.4785H18.4775H18.4765H18.4755H18.4745H18.4734H18.4723H18.4712H18.4701H18.469H18.4678H18.4666H18.4654H18.4642H18.463H18.4617H18.4604H18.4591H18.4578H18.4564H18.4551H18.4537H18.4523H18.4509H18.4494H18.448H18.4465H18.445H18.4435H18.4419H18.4404H18.4388H18.4372H18.4355H18.4339H18.4323H18.4306H18.4289H18.4272H18.4254H18.4237H18.4219H18.4201H18.4183H18.4165H18.4146H18.4127H18.4108H18.4089H18.407H18.4051H18.4031H18.4011H18.3991H18.3971H18.3951H18.393H18.3909H18.3888H18.3867H18.3846H18.3825H18.3803H18.3781H18.3759H18.3737H18.3714H18.3692H18.3669H18.3646H18.3623H18.36H18.3576H18.3553H18.3529H18.3505H18.3481H18.3456H18.3432H18.3407H18.3382H18.3357H18.3332H18.3307H18.3281H18.3256H18.323H18.3204H18.3177H18.3151H18.3124H18.3098H18.3071H18.3044H18.3016H18.2989H18.2961H18.2934H18.2906H18.2878H18.2849H18.2821H18.2792H18.2764H18.2735H18.2706H18.2677H18.2647H18.2618H18.2588H18.2558H18.2528H18.2498H18.2468H18.2437H18.2406H18.2376H18.2345H18.2313H18.2282H18.2251H18.2219H18.2187H18.2155H18.2123H18.2091H18.2059H18.2026H18.1994H18.1961H18.1928H18.1895H18.1861H18.1828H18.1794H18.1761H18.1727H18.1693H18.1658H18.1624H18.159H18.1555H18.152H18.1485H18.145H18.1415H18.138H18.1344H18.1309H18.1273H18.1237H18.1201H18.1165H18.1128H18.1092H18.1055H18.1018H18.0982H18.0945H18.0907H18.087H18.0833H18.0795H18.0757H18.0719H18.0681H18.0643H18.0605H18.0567H18.0528H18.0489H18.0451H18.0412H18.0372H18.0333H18.0294H18.0254H18.0215H18.0175H18.0135H18.0095H18.0055H18.0015H17.9975H17.9934H17.9893H17.9853H17.9812H17.9771H17.973H17.9688H17.9647H17.9606H17.9564H17.9522H17.948H17.9438H17.9396H17.9354H17.9312H17.9269H17.9226H17.9184H17.9141H17.9098H17.9055H17.9012H17.8968H17.8925H17.8881H17.8838H17.8794H17.875H17.8706H17.8662H17.8618H17.8573H17.8529H17.8484H17.844H17.8395H17.835H17.8305H17.826H17.8215H17.8169H17.8124H17.8078H17.8033H17.7987H17.7941H17.7895H17.7849H17.7803H17.7756H17.771H17.7664H17.7617H17.757H17.7523H17.7476H17.7429H17.7382H17.7335H17.7288H17.724H17.7193H17.7145H17.7097H17.705H17.7002H17.6954H17.6906H17.6857H17.6809H17.6761H17.6712H17.6664H17.6615H17.6566H17.6517H17.6468H17.6419H17.637H17.6321H17.6272H17.6222H17.6173H17.6123H17.6073H17.6023H17.5974H17.5924H17.5874H17.5823H17.5773H17.5723H17.5673H17.5622H17.5571H17.5521H17.547H17.5419H17.5368H17.5317H17.5266H17.5215H17.5164H17.5113H17.5061H17.501H17.4958H17.4907H17.4855H17.4803H17.4751H17.4699H17.4647H17.4595H17.4543H17.4491H17.4438H17.4386H17.4334H17.4281H17.4228H17.4176H17.4123H17.407H17.4017H17.3964H17.3911H17.3858H17.3805H17.3752H17.3698H17.3645H17.3592H17.3538H17.3484H17.3431H17.3377H17.3323H17.3269H17.3215H17.3161H17.3107H17.3053H17.2999H17.2945H17.2891H17.2836H17.2782H17.2727H17.2673H17.2618H17.2563H17.2509H17.2454H17.2399H17.2344H17.2289H17.2234H17.2179H17.2124H17.2069H17.2014H17.1958H17.1903H17.1848H17.1792H17.1737H17.1681H17.1625H17.157H17.1514H17.1458H17.1403H17.1347H17.1291H17.1235H17.1179H17.1123H17.1067H17.101H17.0954H17.0898H17.0842H17.0785H17.0729H17.0673H17.0616H17.056H17.0503H17.0447H17.039H17.0333H17.0276H17.022H17.0163H17.0106H17.0049H16.9992H16.9935H16.9878H16.9821H16.9764H16.9707H16.965H16.9593H16.9536H16.9478H16.9421H16.9364H16.9306H16.9249H16.9192H16.9134H16.9077H16.9019H16.8962H16.8904H16.8846H16.8789H16.8731H16.8674H16.8616H16.8558H16.85H16.8442H16.8385H16.8327H16.8269H16.8211H16.8153H16.8095H16.8037H16.7979H16.7921H16.7863H16.7805H16.7747H16.7689H16.7631H16.7573H16.7514H16.7456H16.7398H16.734H16.7282H16.7223H16.7165H16.7107H16.7048H16.699H16.6932H16.6873H16.6815H16.6757H16.6698H16.664H16.6581H16.6523H16.6465H16.6406H16.6348H16.6289H16.6231H16.6172H16.6114H16.6055H16.5997H16.5938H16.588H16.5821H16.5763H16.5704H16.5645H16.5587H16.5528H16.547H16.5411H16.5353H16.5294H16.5235H16.5177H16.5118H16.506H16.5001H16.5ZM10 13.45C10 9.88383 12.9141 7 16.5 7C20.0859 7 23 9.88383 23 13.45C23 15.1733 22.3183 16.7391 21.2099 17.8951C20.2928 18.8518 19.5714 19.8931 19.5714 21.0291V21.9286C19.5714 23.6249 18.1963 25 16.5 25C14.8037 25 13.4286 23.6249 13.4286 21.9286V21.0291C13.4286 19.8931 12.7072 18.8518 11.7901 17.8951C10.6817 16.7391 10 15.1733 10 13.45Z" fill="#00F5FA"/>
</svg>
