<svg width="22" height="21" viewBox="0 0 22 21" fill="none" xmlns="http://www.w3.org/2000/svg">
<mask id="path-1-inside-1_77_2163" fill="white">
<path d="M13.696 21C13.192 21 12.783 20.5909 12.783 20.0869V16.4348C12.783 15.4277 11.964 14.6087 10.9569 14.6087C9.94981 14.6087 9.13081 15.4277 9.13081 16.4348V20.0869C9.13081 20.5909 8.72085 21 8.21776 21H4.10907C3.35398 21 2.7395 20.3855 2.7395 19.6304V11.413C2.7395 11.161 2.94402 10.9565 3.19602 10.9565C3.44802 10.9565 3.65255 11.161 3.65255 11.413V19.6304C3.65255 19.8824 3.85707 20.0869 4.10907 20.0869H8.21776V16.4348C8.21776 14.9246 9.44672 13.6956 10.9569 13.6956C12.4671 13.6956 13.696 14.9246 13.696 16.4348V20.0869H17.8047C18.0567 20.0869 18.2612 19.8824 18.2612 19.6304V11.8696C18.2612 11.6176 18.4658 11.413 18.7178 11.413C18.9698 11.413 19.1743 11.6176 19.1743 11.8696V19.6304C19.1743 20.3855 18.5598 21 17.8047 21H13.696Z"/>
</mask>
<path d="M13.696 21C13.192 21 12.783 20.5909 12.783 20.0869V16.4348C12.783 15.4277 11.964 14.6087 10.9569 14.6087C9.94981 14.6087 9.13081 15.4277 9.13081 16.4348V20.0869C9.13081 20.5909 8.72085 21 8.21776 21H4.10907C3.35398 21 2.7395 20.3855 2.7395 19.6304V11.413C2.7395 11.161 2.94402 10.9565 3.19602 10.9565C3.44802 10.9565 3.65255 11.161 3.65255 11.413V19.6304C3.65255 19.8824 3.85707 20.0869 4.10907 20.0869H8.21776V16.4348C8.21776 14.9246 9.44672 13.6956 10.9569 13.6956C12.4671 13.6956 13.696 14.9246 13.696 16.4348V20.0869H17.8047C18.0567 20.0869 18.2612 19.8824 18.2612 19.6304V11.8696C18.2612 11.6176 18.4658 11.413 18.7178 11.413C18.9698 11.413 19.1743 11.6176 19.1743 11.8696V19.6304C19.1743 20.3855 18.5598 21 17.8047 21H13.696Z" fill="black"/>
<path d="M8.21776 20.0869V21.4565H9.58733V20.0869H8.21776ZM13.696 20.0869H12.3265V21.4565H13.696V20.0869ZM13.696 19.6304C13.9484 19.6304 14.1525 19.8346 14.1525 20.0869H11.4134C11.4134 21.3473 12.4356 22.3696 13.696 22.3696V19.6304ZM14.1525 20.0869V16.4348H11.4134V20.0869H14.1525ZM14.1525 16.4348C14.1525 14.6713 12.7204 13.2391 10.9569 13.2391V15.9783C11.2076 15.9783 11.4134 16.1841 11.4134 16.4348H14.1525ZM10.9569 13.2391C9.19342 13.2391 7.76124 14.6713 7.76124 16.4348H10.5004C10.5004 16.1841 10.7062 15.9783 10.9569 15.9783V13.2391ZM7.76124 16.4348V20.0869H10.5004V16.4348H7.76124ZM7.76124 20.0869C7.76124 19.8337 7.96535 19.6304 8.21776 19.6304V22.3696C9.47635 22.3696 10.5004 21.3482 10.5004 20.0869H7.76124ZM8.21776 19.6304H4.10907V22.3696H8.21776V19.6304ZM4.10907 19.6304H4.10907H1.36994C1.36994 21.1419 2.59759 22.3696 4.10907 22.3696V19.6304ZM4.10907 19.6304V11.413H1.36994V19.6304H4.10907ZM4.10907 11.413C4.10907 11.9174 3.70041 12.3261 3.19602 12.3261V9.58695C2.18763 9.58695 1.36994 10.4046 1.36994 11.413H4.10907ZM3.19602 12.3261C2.69163 12.3261 2.28298 11.9174 2.28298 11.413H5.02211C5.02211 10.4046 4.20441 9.58695 3.19602 9.58695V12.3261ZM2.28298 11.413V19.6304H5.02211V11.413H2.28298ZM2.28298 19.6304C2.28298 20.6388 3.10068 21.4565 4.10907 21.4565V18.7174C4.61346 18.7174 5.02211 19.126 5.02211 19.6304H2.28298ZM4.10907 21.4565H8.21776V18.7174H4.10907V21.4565ZM9.58733 20.0869V16.4348H6.8482V20.0869H9.58733ZM9.58733 16.4348C9.58733 15.681 10.2031 15.0652 10.9569 15.0652V12.3261C8.69033 12.3261 6.8482 14.1682 6.8482 16.4348H9.58733ZM10.9569 15.0652C11.7107 15.0652 12.3265 15.681 12.3265 16.4348H15.0656C15.0656 14.1682 13.2235 12.3261 10.9569 12.3261V15.0652ZM12.3265 16.4348V20.0869H15.0656V16.4348H12.3265ZM13.696 21.4565H17.8047V18.7174H13.696V21.4565ZM17.8047 21.4565C18.8131 21.4565 19.6308 20.6388 19.6308 19.6304H16.8917C16.8917 19.126 17.3003 18.7174 17.8047 18.7174V21.4565ZM19.6308 19.6304V11.8696H16.8917V19.6304H19.6308ZM19.6308 11.8696C19.6308 12.3739 19.2222 12.7826 18.7178 12.7826V10.0435C17.7094 10.0435 16.8917 10.8612 16.8917 11.8696H19.6308ZM18.7178 12.7826C18.2134 12.7826 17.8047 12.3739 17.8047 11.8696H20.5438C20.5438 10.8612 19.7262 10.0435 18.7178 10.0435V12.7826ZM17.8047 11.8696V19.6304H20.5438V11.8696H17.8047ZM17.8047 19.6304V22.3696C19.3162 22.3696 20.5438 21.1419 20.5438 19.6304H17.8047ZM17.8047 19.6304H13.696V22.3696H17.8047V19.6304Z" fill="black" mask="url(#path-1-inside-1_77_2163)"/>
<path d="M0.618196 11.118C0.618047 11.1181 0.617897 11.1183 0.617747 11.1184L0.618196 11.118Z" fill="black" stroke="black" stroke-width="1.36957"/>
</svg>
