<svg width="32" height="32" viewBox="0 0 32 32" fill="none" xmlns="http://www.w3.org/2000/svg">
<path fill-rule="evenodd" clip-rule="evenodd" d="M15.2136 8.0135C15.4179 7.9955 15.6234 7.9955 15.8277 8.0135C16.2872 8.05396 16.7373 8.21824 17.8102 8.62057L18.5726 8.90647C19.7514 9.34853 20.245 9.53863 20.6269 9.82203C21.244 10.2799 21.6932 10.9282 21.9053 11.6667C22.0366 12.1239 22.0413 12.6528 22.0413 13.9118L22.0413 15.0976C22.0413 15.9432 22.0407 16.3319 22.0052 16.6928C21.8024 18.7512 20.7586 20.6345 19.1205 21.8974C18.8333 22.1188 18.504 22.3253 17.7869 22.7735C17.3803 23.0276 17.2088 23.134 17.0438 23.2138C16.0816 23.6788 14.9597 23.6788 13.9975 23.2138C13.8324 23.134 13.661 23.0276 13.2544 22.7735C12.5373 22.3253 12.208 22.1188 11.9208 21.8974C10.2827 20.6345 9.23886 18.7512 9.03612 16.6928C9.00058 16.3319 9.00001 15.9432 9.00001 15.0976L9.00001 13.9118C9.00001 12.6528 9.0047 12.1239 9.13595 11.6667C9.34803 10.9282 9.79727 10.2799 10.4143 9.82203C10.7963 9.53863 11.2899 9.34853 12.4687 8.90647L13.2311 8.62057C14.304 8.21824 14.7541 8.05396 15.2136 8.0135ZM15.9154 7.01735C15.6527 6.99422 15.3885 6.99422 15.1259 7.01735C14.5143 7.07121 13.9307 7.29011 12.9532 7.65678L12.88 7.68424L12.1176 7.97014L12.0342 8.00141C10.964 8.4026 10.3275 8.6412 9.81844 9.01898C9.02506 9.60771 8.44746 10.4412 8.17479 11.3908C7.99982 12.0001 7.99989 12.6798 8 13.8227L8.00001 13.9118L8.00001 15.0976L8.00001 15.1306C8 15.9348 8 16.3751 8.04094 16.7908C8.27071 19.1237 9.45371 21.2581 11.3102 22.6894C11.641 22.9444 12.0144 23.1778 12.6963 23.604L12.7244 23.6215L12.753 23.6394L12.753 23.6394C13.1226 23.8704 13.3424 24.0078 13.5623 24.1141C14.7994 24.712 16.2419 24.712 17.479 24.1141C17.6989 24.0078 17.9186 23.8704 18.2883 23.6394L18.3169 23.6215L18.345 23.604C19.0269 23.1778 19.4003 22.9444 19.7311 22.6894C21.5876 21.2581 22.7706 19.1237 23.0003 16.7908C23.0413 16.3751 23.0413 15.9348 23.0413 15.1307L23.0413 15.1307L23.0413 15.0976L23.0413 13.9118L23.0413 13.8227C23.0414 12.6798 23.0415 12.0001 22.8665 11.3908C22.5938 10.4412 22.0162 9.60771 21.2228 9.01898C20.7137 8.6412 20.0773 8.4026 19.0071 8.00142L18.9237 7.97014L18.1613 7.68424L18.0881 7.65678C17.1106 7.29011 16.527 7.07121 15.9154 7.01735ZM18.9457 14.1634C19.141 13.9682 19.141 13.6516 18.9457 13.4563C18.7505 13.261 18.4339 13.261 18.2386 13.4563L14.6431 17.0519L13.2415 15.6503C13.0462 15.455 12.7296 15.455 12.5343 15.6503C12.3391 15.8455 12.3391 16.1621 12.5343 16.3574L14.2895 18.1125C14.4848 18.3078 14.8014 18.3078 14.9966 18.1125L18.9457 14.1634Z" fill="#00F5FA"/>
</svg>
