<svg width="32" height="32" viewBox="0 0 32 32" fill="none" xmlns="http://www.w3.org/2000/svg">
<path d="M13 16.0027H23.5M23.5 16.0027L21 18.5027M23.5 16.0027L21 13.5027M18.5 19V22C18.5114 22.253 18.4222 22.5003 18.2518 22.6877C18.0814 22.8751 17.8437 22.9874 17.5907 23H9.4087C9.15583 22.9872 8.91831 22.8749 8.74804 22.6875C8.57777 22.5001 8.48861 22.2529 8.50003 22V10C8.48843 9.74703 8.57753 9.49976 8.74784 9.31234C8.91814 9.12492 9.15577 9.01261 9.4087 9H17.5907C17.8437 9.01261 18.0814 9.1249 18.2518 9.3123C18.4222 9.4997 18.5114 9.74696 18.5 10V13" stroke="#00F5FA" stroke-linecap="round" stroke-linejoin="round"/>
</svg>
