<svg width="101" height="92" viewBox="0 0 101 92" fill="none" xmlns="http://www.w3.org/2000/svg">
<g filter="url(#filter0_d_23_1106)">
<path d="M86.572 40.7008C86.572 60.407 70.5969 76.382 50.8907 76.382C31.1845 76.382 15.2095 60.407 15.2095 40.7008C15.2095 20.9946 31.1845 5.01953 50.8907 5.01953C70.5969 5.01953 86.572 20.9946 86.572 40.7008Z" fill="#0C0B0D"/>
</g>
<path d="M35.1104 48.0472V55.4308H66.8892V48.0472H35.1104Z" fill="white"/>
<path d="M35.1113 23.4392V30.8227L66.8902 30.8227V23.4392H35.1113Z" fill="white"/>
<path d="M35.1104 35.7427V43.1263H59.4421V35.7427H35.1104Z" fill="white"/>
<path d="M51 75.3625C31.149 75.3625 15 59.3565 15 39.6813C15 20.0061 31.149 4 51 4C70.851 4 87 20.0061 87 39.6813C87 59.3565 70.851 75.3625 51 75.3625ZM51 6.46119C32.5192 6.46119 17.4832 21.3641 17.4832 39.6813C17.4832 57.9984 32.5192 72.9037 51 72.9037C69.4808 72.9037 84.5192 58.0008 84.5192 39.6813C84.5192 21.3617 69.4832 6.46119 51 6.46119Z" fill="url(#paint0_linear_23_1106)"/>
<defs>
<filter id="filter0_d_23_1106" x="0.93697" y="0.941673" width="99.9073" height="99.9075" filterUnits="userSpaceOnUse" color-interpolation-filters="sRGB">
<feFlood flood-opacity="0" result="BackgroundImageFix"/>
<feColorMatrix in="SourceAlpha" type="matrix" values="0 0 0 0 0 0 0 0 0 0 0 0 0 0 0 0 0 0 127 0" result="hardAlpha"/>
<feOffset dy="10.1946"/>
<feGaussianBlur stdDeviation="7.13625"/>
<feColorMatrix type="matrix" values="0 0 0 0 0.752941 0 0 0 0 1 0 0 0 0 0 0 0 0 0.11 0"/>
<feBlend mode="normal" in2="BackgroundImageFix" result="effect1_dropShadow_23_1106"/>
<feBlend mode="normal" in="SourceGraphic" in2="effect1_dropShadow_23_1106" result="shape"/>
</filter>
<linearGradient id="paint0_linear_23_1106" x1="15" y1="39.6818" x2="87.001" y2="39.6818" gradientUnits="userSpaceOnUse">
<stop stop-color="#C0FF00"/>
<stop offset="0.5061" stop-color="#00F6F9"/>
<stop offset="1" stop-color="#FF004E"/>
</linearGradient>
</defs>
</svg>
