<svg width="32" height="32" viewBox="0 0 32 32" fill="none" xmlns="http://www.w3.org/2000/svg">
<path fill-rule="evenodd" clip-rule="evenodd" d="M17.2143 6.75C17.2143 6.33579 16.8785 6 16.4643 6C16.0501 6 15.7143 6.33579 15.7143 6.75L15.7143 25.4929C15.7143 25.9071 16.0501 26.2429 16.4643 26.2429C16.8785 26.2429 17.2143 25.9071 17.2143 25.4929L17.2143 6.75ZM10.6071 10.6857C11.0214 10.6857 11.3571 11.0215 11.3571 11.4357L11.3571 20.8071C11.3571 21.2214 11.0214 21.5571 10.6071 21.5571C10.1929 21.5571 9.85714 21.2214 9.85714 20.8071L9.85714 11.4357C9.85714 11.0215 10.1929 10.6857 10.6071 10.6857ZM4.75 14.2C5.16421 14.2 5.5 14.5358 5.5 14.95L5.5 17.2929C5.5 17.7071 5.16421 18.0429 4.75 18.0429C4.33579 18.0429 4 17.7071 4 17.2929L4 14.95C4 14.5358 4.33578 14.2 4.75 14.2ZM22.3214 10.6857C22.7356 10.6857 23.0714 11.0215 23.0714 11.4357L23.0714 20.8071C23.0714 21.2214 22.7356 21.5571 22.3214 21.5571C21.9072 21.5571 21.5714 21.2214 21.5714 20.8071L21.5714 11.4357C21.5714 11.0215 21.9072 10.6857 22.3214 10.6857ZM28.9286 14.95C28.9286 14.5358 28.5928 14.2 28.1786 14.2C27.7643 14.2 27.4286 14.5358 27.4286 14.95L27.4286 17.2929C27.4286 17.7071 27.7643 18.0429 28.1786 18.0429C28.5928 18.0429 28.9286 17.7071 28.9286 17.2929L28.9286 14.95Z" fill="#606061"/>
</svg>
