<svg width="11" height="15" viewBox="0 0 11 15" fill="none" xmlns="http://www.w3.org/2000/svg">
<path fill-rule="evenodd" clip-rule="evenodd" d="M3.61565 0.241787C3.77188 0.397222 3.85 0.581441 3.85 0.794444V13.5056C3.85 13.7186 3.77188 13.9057 3.61565 14.0668C3.45942 14.2223 3.28087 14.3 3.08 14.3H0.77C0.563551 14.3 0.38221 14.2223 0.225978 14.0668C0.0753261 13.9057 0 13.7186 0 13.5056V0.794444C0 0.581441 0.0753261 0.397222 0.225978 0.241787C0.38221 0.0805958 0.563551 0 0.77 0H3.08C3.28087 0 3.45942 0.0805958 3.61565 0.241787ZM10.2156 0.241787C10.3719 0.397222 10.45 0.581441 10.45 0.794444V13.5056C10.45 13.7186 10.3719 13.9057 10.2156 14.0668C10.0594 14.2223 9.88085 14.3 9.67998 14.3H7.36998C7.16353 14.3 6.98219 14.2223 6.82595 14.0668C6.6753 13.9057 6.59998 13.7186 6.59998 13.5056V0.794444C6.59998 0.581441 6.6753 0.397222 6.82595 0.241787C6.98219 0.0805958 7.16353 0 7.36998 0H9.67998C9.88085 0 10.0594 0.0805958 10.2156 0.241787Z" fill="#181818"/>
</svg>
