<svg width="22" height="22" viewBox="0 0 22 22" fill="none" xmlns="http://www.w3.org/2000/svg">
<path fill-rule="evenodd" clip-rule="evenodd" d="M4.46564 8.0174C4.42126 8.00608 4.38004 7.98683 4.34358 7.96126C4.29872 7.92994 4.26252 7.8901 4.23597 7.84518C4.20934 7.80032 4.1918 7.74942 4.18588 7.69504C4.1841 7.67896 4.18335 7.66272 4.18366 7.64644V4.35013C4.18366 4.14302 4.35156 3.97513 4.55866 3.97513C4.76577 3.97513 4.93366 4.14302 4.93366 4.35013V6.41033C5.4877 5.70828 6.16263 5.10615 6.9299 4.63399C8.0612 3.9378 9.35425 3.54815 10.6818 3.50335L10.6944 3.50293V3.50314C11.7222 3.50294 12.7389 3.71608 13.6801 4.12907C14.6213 4.54206 15.4666 5.1459 16.1623 5.9024C16.3025 6.05484 16.2926 6.29207 16.1402 6.43227C15.9878 6.57247 15.7505 6.56256 15.6103 6.41012C14.9848 5.73002 14.2249 5.18715 13.3788 4.81586C12.5345 4.44542 11.6227 4.25383 10.7008 4.25314C9.5056 4.29456 8.34159 4.64589 7.32297 5.27273C6.48783 5.78666 5.77397 6.4713 5.22668 7.27903H7.39058C7.59769 7.27903 7.76558 7.44693 7.76558 7.65403C7.76558 7.86114 7.59769 8.02903 7.39058 8.02903H4.56558C4.5323 8.02968 4.49868 8.02589 4.46564 8.0174ZM8.95748 14.6972C9.17967 14.9194 9.53993 14.9194 9.76213 14.6972L14.4346 10.0248C14.6568 9.8026 14.6568 9.44235 14.4346 9.22015L12.4321 7.21768C12.2099 6.99549 11.8496 6.99549 11.6274 7.21768L6.95501 11.8901C6.73281 12.1123 6.73281 12.4726 6.95501 12.6948L8.95748 14.6972ZM10.2925 15.2276C9.77736 15.7427 8.94224 15.7427 8.42715 15.2276L6.42468 13.2251C5.90959 12.71 5.90959 11.8749 6.42468 11.3598L11.0971 6.68735C11.6122 6.17226 12.4473 6.17226 12.9624 6.68735L14.9649 8.68982C15.48 9.20491 15.48 10.04 14.9649 10.5551L10.2925 15.2276ZM13.6244 14.2613C13.6244 14.0542 13.7923 13.8863 13.9994 13.8863H16.8313C17.0384 13.8863 17.2063 14.0542 17.2063 14.2613V17.5653C17.2063 17.7724 17.0384 17.9403 16.8313 17.9403C16.6242 17.9403 16.4563 17.7724 16.4563 17.5653V15.5051C15.9022 16.2073 15.2272 16.8096 14.4598 17.2819C13.3285 17.9781 12.0354 18.3677 10.7077 18.4123L10.6952 18.4128L10.6952 18.4126C9.66736 18.4127 8.6507 18.1996 7.70951 17.7866C6.76832 17.3736 5.92308 16.7698 5.22727 16.0133C5.08706 15.8609 5.09697 15.6236 5.2494 15.4834C5.40183 15.3432 5.63906 15.3531 5.77926 15.5056C6.40482 16.1856 7.16471 16.7285 8.01087 17.0998C8.85511 17.4702 9.76689 17.6618 10.6888 17.6626C11.8841 17.6213 13.0481 17.27 14.0667 16.6431C14.902 16.1291 15.6159 15.4443 16.1632 14.6363H13.9994C13.7923 14.6363 13.6244 14.4685 13.6244 14.2613Z" fill="white"/>
</svg>
