<svg width="32" height="32" viewBox="0 0 32 32" fill="none" xmlns="http://www.w3.org/2000/svg">
<path fill-rule="evenodd" clip-rule="evenodd" d="M15.6496 5C14.2524 5 13.1197 6.13268 13.1197 7.52991V8.83002C12.9465 8.89109 12.7762 8.95825 12.609 9.03124L11.697 8.11923C10.709 7.13123 9.10719 7.13123 8.11919 8.11923C7.1312 9.10722 7.1312 10.7091 8.11919 11.6971L8.90652 12.4844C8.79862 12.6907 8.6999 12.9027 8.6109 13.1197H7.52991C6.13268 13.1197 5 14.2524 5 15.6496C5 17.0468 6.13268 18.1795 7.52991 18.1795H8.36085C8.44915 18.4757 8.555 18.7643 8.67717 19.0441L8.11918 19.6021C7.13119 20.5901 7.13119 22.1919 8.11918 23.1799C9.10717 24.1679 10.709 24.1679 11.697 23.1799L12.1303 22.7466C12.4475 22.9125 12.778 23.0567 13.1197 23.1772V23.7692C13.1197 25.1664 14.2524 26.2991 15.6496 26.2991C17.0468 26.2991 18.1795 25.1664 18.1795 23.7692V23.1772C18.5211 23.0567 18.8516 22.9125 19.1688 22.7467L19.6021 23.18C20.5901 24.168 22.192 24.168 23.18 23.18C24.1679 22.192 24.1679 20.5901 23.18 19.6021L22.6219 19.0441C22.7441 18.7643 22.85 18.4757 22.9383 18.1795H23.7692C25.1664 18.1795 26.2991 17.0468 26.2991 15.6496C26.2991 14.2524 25.1664 13.1197 23.7692 13.1197H22.6882C22.5992 12.9027 22.5005 12.6907 22.3926 12.4844L23.1799 11.697C24.1679 10.709 24.1679 9.10717 23.1799 8.11918C22.1919 7.13119 20.5901 7.13118 19.6021 8.11918L18.6901 9.03123C18.5229 8.95825 18.3527 8.8911 18.1795 8.83004V7.52991C18.1795 6.13268 17.0468 5 15.6496 5ZM14.1197 7.52991C14.1197 6.68496 14.8046 6 15.6496 6C16.4945 6 17.1795 6.68497 17.1795 7.52991V9.19314C17.1795 9.41435 17.3249 9.60927 17.5369 9.67237C17.8965 9.77941 18.2434 9.91629 18.5746 10.0802C18.7668 10.1753 18.9983 10.1372 19.1499 9.9856L20.3092 8.82628C20.9067 8.22882 21.8754 8.22882 22.4728 8.82628C23.0703 9.42375 23.0703 10.3924 22.4728 10.9899L21.4188 12.0439C21.2575 12.2052 21.2258 12.4552 21.3418 12.6516C21.5533 13.01 21.7319 13.39 21.8734 13.7874C21.9443 13.9866 22.1329 14.1197 22.3444 14.1197H23.7692C24.6142 14.1197 25.2991 14.8047 25.2991 15.6496C25.2991 16.4945 24.6142 17.1795 23.7692 17.1795H22.5555C22.3246 17.1795 22.1237 17.3376 22.0695 17.562C21.9539 18.0399 21.7863 18.4976 21.573 18.9287C21.4779 19.1209 21.5159 19.3523 21.6676 19.504L22.4728 20.3093C23.0703 20.9067 23.0703 21.8754 22.4728 22.4729C21.8754 23.0703 20.9067 23.0703 20.3092 22.4729L19.6092 21.7729C19.4479 21.6116 19.1979 21.5799 19.0015 21.6958C18.5455 21.965 18.0544 22.1808 17.5369 22.3349C17.3249 22.398 17.1795 22.5929 17.1795 22.8141V23.7692C17.1795 24.6142 16.4945 25.2991 15.6496 25.2991C14.8046 25.2991 14.1197 24.6142 14.1197 23.7692V22.8141C14.1197 22.5929 13.9743 22.398 13.7623 22.3349C13.2447 22.1808 12.7537 21.965 12.2976 21.6958C12.1012 21.5799 11.8512 21.6116 11.6899 21.7729L10.9899 22.4728C10.3924 23.0703 9.42376 23.0703 8.82629 22.4728C8.22882 21.8754 8.22882 20.9067 8.82629 20.3092L9.63154 19.5039C9.78318 19.3523 9.82124 19.1209 9.72613 18.9286C9.51281 18.4975 9.34523 18.0399 9.22966 17.562C9.1754 17.3376 8.97454 17.1795 8.74367 17.1795H7.52991C6.68496 17.1795 6 16.4945 6 15.6496C6 14.8047 6.68497 14.1197 7.52991 14.1197H8.95471C9.16618 14.1197 9.35479 13.9866 9.42573 13.7874C9.56726 13.39 9.74583 13.01 9.95735 12.6517C10.0733 12.4552 10.0416 12.2052 9.88031 12.044L8.8263 10.99C8.22883 10.3925 8.22883 9.4238 8.8263 8.82633C9.42377 8.22886 10.3925 8.22886 10.9899 8.82633L12.1492 9.98561C12.3008 10.1373 12.5323 10.1753 12.7245 10.0802C13.0557 9.91629 13.4026 9.7794 13.7623 9.67235C13.9743 9.60926 14.1197 9.41434 14.1197 9.19313V7.52991ZM13.1047 15.6496C13.1047 14.2441 14.2441 13.1047 15.6496 13.1047C17.0551 13.1047 18.1944 14.2441 18.1944 15.6496C18.1944 17.055 17.0551 18.1944 15.6496 18.1944C14.2441 18.1944 13.1047 17.055 13.1047 15.6496ZM15.6496 12.1047C13.6918 12.1047 12.1047 13.6918 12.1047 15.6496C12.1047 17.6073 13.6918 19.1944 15.6496 19.1944C17.6073 19.1944 19.1944 17.6073 19.1944 15.6496C19.1944 13.6918 17.6073 12.1047 15.6496 12.1047Z" fill="#606061"/>
</svg>
