<svg width="32" height="32" viewBox="0 0 32 32" fill="none" xmlns="http://www.w3.org/2000/svg">
<path fill-rule="evenodd" clip-rule="evenodd" d="M18.4886 9.41058C18.7257 8.04136 19.9194 7 21.3564 7C22.9639 7 24.267 8.30311 24.267 9.91058C24.267 11.518 22.9639 12.8212 21.3564 12.8212C19.9194 12.8212 18.7257 11.7798 18.4886 10.4106L14.1247 10.4106C12.7792 10.4106 11.6624 11.3896 11.4478 12.6742C12.7986 12.9262 13.8211 14.1113 13.8211 15.5353C13.8211 16.9592 12.7986 18.1443 11.4478 18.3964C11.6624 19.6809 12.7792 20.6599 14.1247 20.6599L18.4886 20.6599C18.7257 19.2907 19.9194 18.2494 21.3564 18.2494C22.9639 18.2494 24.267 19.5525 24.267 21.1599C24.267 22.7674 22.9639 24.0705 21.3564 24.0705C19.9194 24.0705 18.7257 23.0292 18.4886 21.6599L14.1247 21.6599C12.2299 21.6599 10.6665 20.2411 10.439 18.4078C9.0558 18.1825 8 16.9822 8 15.5353C8 14.0883 9.0558 12.888 10.439 12.6627C10.6665 10.8295 12.2299 9.41058 14.1247 9.41058L18.4886 9.41058ZM21.3564 8C20.3012 8 19.4458 8.8554 19.4458 9.91058C19.4458 10.9658 20.3012 11.8212 21.3564 11.8212C22.4116 11.8212 23.267 10.9658 23.267 9.91058C23.267 8.8554 22.4116 8 21.3564 8ZM10.9106 13.6247C9.85539 13.6247 9 14.4801 9 15.5353C9 16.5904 9.85539 17.4458 10.9106 17.4458C11.9658 17.4458 12.8211 16.5904 12.8211 15.5353C12.8211 14.4801 11.9658 13.6247 10.9106 13.6247ZM19.4458 21.1599C19.4458 20.1048 20.3012 19.2494 21.3564 19.2494C22.4116 19.2494 23.267 20.1048 23.267 21.1599C23.267 22.2151 22.4116 23.0705 21.3564 23.0705C20.3012 23.0705 19.4458 22.2151 19.4458 21.1599Z" fill="#00F5FA"/>
</svg>
