<svg width="32" height="32" viewBox="0 0 32 32" fill="none" xmlns="http://www.w3.org/2000/svg">
<path d="M15.4169 8.36704C15.4704 8.25703 15.5541 8.16426 15.6583 8.09934C15.7625 8.03443 15.8829 8 16.0059 8C16.1288 8 16.2493 8.03443 16.3535 8.09934C16.4577 8.16426 16.5413 8.25703 16.5949 8.36704L19.0152 13.2313L24.4395 14.0121C24.5606 14.0296 24.6743 14.0804 24.7677 14.1589C24.8612 14.2373 24.9307 14.3402 24.9683 14.456C25.0059 14.5717 25.0101 14.6955 24.9805 14.8135C24.9509 14.9315 24.8887 15.0389 24.8008 15.1235L20.8739 18.8973L21.8007 24.2326C21.8213 24.3521 21.808 24.475 21.7622 24.5874C21.7163 24.6997 21.6398 24.7971 21.5413 24.8685C21.4427 24.94 21.3261 24.9826 21.2045 24.9917C21.0829 25.0007 20.9611 24.9758 20.853 24.9197L16.0046 22.403L11.147 24.9262C11.0389 24.9823 10.9171 25.0072 10.7955 24.9982C10.6739 24.9891 10.5573 24.9465 10.4587 24.8751C10.3602 24.8036 10.2837 24.7062 10.2378 24.5939C10.192 24.4815 10.1787 24.3586 10.1993 24.2392L11.1261 18.9038L7.19919 15.13C7.11132 15.0454 7.04906 14.938 7.01945 14.82C6.98985 14.702 6.9941 14.5782 7.03172 14.4625C7.06933 14.3468 7.13881 14.2438 7.23226 14.1654C7.32572 14.087 7.43942 14.0361 7.56046 14.0186L12.9861 13.2379L15.4169 8.36704Z" stroke="#00F5FA" stroke-linecap="round" stroke-linejoin="round"/>
</svg>
