<svg width="20" height="20" viewBox="0 0 20 20" fill="none" xmlns="http://www.w3.org/2000/svg">
<path d="M9.99984 16.6666C9.94484 16.6666 9.8915 16.6558 9.83984 16.6341C9.789 16.6133 9.74317 16.5825 9.704 16.5433L5.53817 12.3775C5.45984 12.2991 5.4165 12.195 5.4165 12.0833C5.4165 11.9716 5.45984 11.8675 5.53817 11.7883C5.6165 11.7091 5.7215 11.6666 5.83317 11.6666C5.94484 11.6666 6.049 11.71 6.12817 11.7883L9.58317 15.2433V7.49998C9.58317 7.26998 9.76984 7.08331 9.99984 7.08331C10.2298 7.08331 10.4165 7.26998 10.4165 7.49998V15.2441L13.8715 11.7891C13.9507 11.71 14.0548 11.6666 14.1665 11.6666C14.2782 11.6666 14.3823 11.71 14.4615 11.7883C14.5407 11.8666 14.5832 11.9716 14.5832 12.0833C14.5832 12.195 14.5398 12.2991 14.4615 12.3783L10.2948 16.545C10.2565 16.5833 10.2107 16.6141 10.159 16.6358C10.1082 16.6558 10.0548 16.6666 9.99984 16.6666Z" fill="white"/>
<path d="M1.6665 20C0.977337 20 0.416504 19.4392 0.416504 18.75V5.41667C0.420671 5.27917 0.429837 5.14083 0.444837 5.00083V5C0.444837 4.985 0.446504 4.96833 0.449837 4.9525C0.500671 4.50417 0.601504 4.0775 0.749837 3.6675L1.80317 1.035C2.08317 0.426667 2.659 0.0341667 3.31067 0.000833333L16.6665 0C17.3357 0.0341667 17.914 0.4225 18.1873 1.01583L19.244 3.65583C19.2465 3.66167 19.2507 3.67333 19.2523 3.68C19.3998 4.085 19.5015 4.51917 19.5507 4.96083C19.5532 4.97333 19.5548 4.9875 19.5548 5C19.5548 5 19.5548 5 19.5548 5.00083C19.5698 5.1425 19.579 5.27417 19.5823 5.40417V18.7508C19.5823 19.44 19.0215 20.0008 18.3323 20.0008H1.6665V20ZM1.24984 18.75C1.24984 18.98 1.4365 19.1667 1.6665 19.1667H18.3332C18.5632 19.1667 18.7498 18.98 18.7498 18.75V5.41667H1.24984C1.24984 5.42083 1.24984 18.75 1.24984 18.75ZM18.644 4.58333C18.5982 4.36333 18.5382 4.15333 18.4665 3.955L17.4223 1.34417C17.2865 1.05167 16.989 0.8525 16.6498 0.833333H10.4165V4.58333H18.644ZM9.58317 4.58333V0.833333H3.33317C3.009 0.850833 2.71234 1.05417 2.569 1.36417L1.529 3.96417C1.45984 4.15667 1.4015 4.36417 1.35567 4.58333H9.58317Z" fill="white"/>
</svg>
