<svg width="32" height="32" viewBox="0 0 32 32" fill="none" xmlns="http://www.w3.org/2000/svg">
<path fill-rule="evenodd" clip-rule="evenodd" d="M8.89529 8L8.49994 8.00005C8.2238 8.00008 7.99997 8.22397 8 8.50011C8.00003 8.77625 8.22392 9.00008 8.50006 9.00005L8.89534 9H8.89541C9.85085 9.00006 10.6946 9.62322 10.9755 10.5364L12.2828 14.7849L12.2915 14.8134L12.2915 14.8134C12.5839 15.7635 12.8154 16.5162 13.0689 17.1013C13.3298 17.7033 13.6323 18.1741 14.0924 18.5345C14.1444 18.5752 14.1976 18.6145 14.2518 18.6522C14.7315 18.986 15.2705 19.1367 15.9226 19.2089C16.5564 19.2791 17.3438 19.2791 18.338 19.2791H18.338H18.3677H18.9875H19.0085C19.7153 19.2791 20.2752 19.2791 20.7323 19.2429C21.2012 19.2056 21.5971 19.1283 21.9709 18.9553C22.4088 18.7525 22.8001 18.4614 23.1201 18.1002C23.3933 17.7919 23.5811 17.4349 23.7515 16.9965C23.9176 16.5691 24.0785 16.0328 24.2816 15.3557L24.2816 15.3557L24.2876 15.3357L24.2956 15.309L24.2956 15.3089C24.5259 14.5414 24.7097 13.9289 24.8058 13.4321C24.9038 12.9254 24.926 12.4702 24.7737 12.0392C24.6059 11.5642 24.2985 11.151 23.8917 10.8537C23.5227 10.584 23.0802 10.4745 22.5668 10.4228C22.0633 10.3721 21.4238 10.3721 20.6225 10.3721L20.5946 10.3721H12.0581C12.0293 10.3721 12.001 10.3746 11.9735 10.3793L11.9313 10.2423C11.5212 8.90953 10.2898 8.00003 8.89536 8L8.89535 8.5L8.89529 8ZM13.2385 14.4908L12.2789 11.3721H20.5946C21.4301 11.3721 22.0191 11.3727 22.4666 11.4178C22.91 11.4624 23.1436 11.5455 23.3017 11.6611C23.5457 11.8395 23.7302 12.0874 23.8309 12.3724C23.8961 12.557 23.9086 12.8047 23.824 13.2421C23.7386 13.6837 23.5699 14.248 23.3298 15.0483C23.1193 15.7499 22.9694 16.2482 22.8194 16.6342C22.672 17.0135 22.5367 17.2508 22.3717 17.437C22.1431 17.695 21.8636 17.903 21.5508 18.0478C21.325 18.1523 21.0588 18.2138 20.6532 18.246C20.2403 18.2788 19.7199 18.2791 18.9875 18.2791H18.3677C17.3372 18.2791 16.6051 18.2784 16.0327 18.215C15.4724 18.1529 15.1155 18.0349 14.8229 17.8313C14.7841 17.8044 14.7462 17.7763 14.709 17.7472C14.4283 17.5274 14.2106 17.221 13.9865 16.7037C13.7576 16.1753 13.5416 15.4758 13.2385 14.4908ZM15.6163 21.6512C15.019 21.6512 14.5349 22.1353 14.5349 22.7326C14.5349 23.3298 15.019 23.814 15.6163 23.814C16.2135 23.814 16.6977 23.3298 16.6977 22.7326C16.6977 22.1353 16.2135 21.6512 15.6163 21.6512ZM13.5349 22.7326C13.5349 21.583 14.4668 20.6512 15.6163 20.6512C16.7658 20.6512 17.6977 21.583 17.6977 22.7326C17.6977 23.8821 16.7658 24.814 15.6163 24.814C14.4668 24.814 13.5349 23.8821 13.5349 22.7326ZM21.9419 21.6512C21.3446 21.6512 20.8605 22.1353 20.8605 22.7326C20.8605 23.3298 21.3446 23.814 21.9419 23.814C22.5391 23.814 23.0233 23.3298 23.0233 22.7326C23.0233 22.1353 22.5391 21.6512 21.9419 21.6512ZM19.8605 22.7326C19.8605 21.583 20.7923 20.6512 21.9419 20.6512C23.0914 20.6512 24.0233 21.583 24.0233 22.7326C24.0233 23.8821 23.0914 24.814 21.9419 24.814C20.7923 24.814 19.8605 23.8821 19.8605 22.7326Z" fill="#00F5FA"/>
</svg>
