<svg width="22" height="22" viewBox="0 0 22 22" fill="none" xmlns="http://www.w3.org/2000/svg">
<path fill-rule="evenodd" clip-rule="evenodd" d="M19 0.5C19 0.223858 18.7761 0 18.5 0C18.2239 0 18 0.223858 18 0.5V3H15.5C15.2239 3 15 3.22386 15 3.5C15 3.77614 15.2239 4 15.5 4H18V6.5C18 6.77614 18.2239 7 18.5 7C18.7761 7 19 6.77614 19 6.5V4H21.5C21.7761 4 22 3.77614 22 3.5C22 3.22386 21.7761 3 21.5 3H19V0.5ZM6.46204 3H6.5H12C12.2761 3 12.5 3.22386 12.5 3.5C12.5 3.77614 12.2761 4 12 4H6.5C5.07165 4 4.05069 4.00106 3.27481 4.10538C2.51331 4.20776 2.06319 4.40128 1.73223 4.73223C1.40128 5.06319 1.20776 5.51331 1.10538 6.27481C1.00106 7.05069 1 8.07165 1 9.5V15.5C1 16.9283 1.00106 17.9493 1.10538 18.7252C1.20776 19.4867 1.40128 19.9368 1.73223 20.2678C2.06319 20.5987 2.51331 20.7922 3.27481 20.8946C4.05069 20.9989 5.07165 21 6.5 21H12.5C13.9283 21 14.9493 20.9989 15.7252 20.8946C16.4867 20.7922 16.9368 20.5987 17.2678 20.2678C17.5987 19.9368 17.7922 19.4867 17.8946 18.7252C17.9989 17.9493 18 16.9283 18 15.5V10C18 9.72386 18.2239 9.5 18.5 9.5C18.7761 9.5 19 9.72386 19 10V15.5V15.538C19 16.92 19 18.0082 18.8857 18.8584C18.7684 19.7308 18.5226 20.4271 17.9749 20.9749C17.4271 21.5226 16.7308 21.7684 15.8584 21.8857C15.0082 22 13.92 22 12.538 22H12.5H6.5H6.46202C5.08 22 3.99179 22 3.14156 21.8857C2.26918 21.7684 1.57285 21.5226 1.02513 20.9749C0.477402 20.4271 0.231583 19.7308 0.114294 18.8584C-1.66992e-05 18.0082 -9.18905e-06 16.92 1.68881e-07 15.538V15.5V9.5V9.46204C-9.18905e-06 8.08001 -1.66992e-05 6.99179 0.114294 6.14156C0.231583 5.26917 0.477402 4.57285 1.02513 4.02513C1.57285 3.4774 2.26918 3.23158 3.14156 3.11429C3.99179 2.99998 5.08001 2.99999 6.46203 3H6.46203H6.46204ZM10.8513 10.1333L10.8867 10.1569L11.2812 10.4199L11.3146 10.4421C11.8506 10.7994 12.2994 11.0986 12.6091 11.3785C12.9326 11.6709 13.1972 12.0234 13.1972 12.5C13.1972 12.9766 12.9326 13.3291 12.6091 13.6215C12.2994 13.9014 11.8506 14.2006 11.3146 14.5579L11.2812 14.5801L10.8868 14.8431L10.8513 14.8667C10.1971 15.3029 9.65878 15.6618 9.21708 15.8704C8.76688 16.083 8.27149 16.2105 7.79221 15.954C7.31294 15.6975 7.1442 15.2146 7.07139 14.7221C6.99996 14.2388 6.99998 13.5918 7 12.8056V12.8055L7 12.763V12.237L7 12.1945V12.1944C6.99998 11.4082 6.99996 10.7612 7.07139 10.2779C7.1442 9.78541 7.31294 9.30251 7.79221 9.04601C8.27149 8.7895 8.76688 8.91697 9.21708 9.12959C9.65878 9.33821 10.1971 9.69712 10.8513 10.1333ZM8.79002 10.0338C8.4238 9.86086 8.31294 9.90153 8.26407 9.92768C8.21521 9.95383 8.11987 10.0235 8.06064 10.4242C8.00133 10.8254 8 11.3975 8 12.237V12.763C8 13.6025 8.00133 14.1746 8.06064 14.5758C8.11987 14.9765 8.21521 15.0462 8.26407 15.0723C8.31294 15.0985 8.4238 15.1391 8.79002 14.9662C9.15677 14.793 9.63354 14.4767 10.3321 14.011L10.7265 13.7481C11.3047 13.3626 11.6904 13.1039 11.9386 12.8796C12.1796 12.6618 12.1972 12.5586 12.1972 12.5C12.1972 12.4414 12.1796 12.3382 11.9386 12.1204C11.6904 11.8961 11.3047 11.6374 10.7265 11.2519L10.332 10.989C9.63354 10.5233 9.15677 10.207 8.79002 10.0338Z" fill="#606061"/>
</svg>
