<svg width="20" height="20" viewBox="0 0 20 20" fill="none" xmlns="http://www.w3.org/2000/svg">
<path d="M9.99902 20.001C4.48486 20.001 -0.000976562 15.5151 -0.000976562 10.001C-0.000976562 4.48681 4.48486 0.000976562 9.99902 0.000976562C15.5132 0.000976562 19.999 4.48681 19.999 10.001C19.999 15.5151 15.5132 20.001 9.99902 20.001ZM9.99902 0.83431C4.94486 0.83431 0.832357 4.94681 0.832357 10.001C0.832357 15.0551 4.94486 19.1676 9.99902 19.1676C15.0532 19.1676 19.1657 15.0551 19.1657 10.001C19.1657 4.94681 15.0532 0.83431 9.99902 0.83431Z" fill="white"/>
<path d="M15.0002 15.0008C14.896 15.0008 14.796 14.9616 14.7185 14.8916L9.7185 10.3083C9.63266 10.23 9.5835 10.1175 9.5835 10.0008V5.41746C9.5835 5.18746 9.77016 5.00079 10.0002 5.00079C10.2302 5.00079 10.4168 5.18746 10.4168 5.41746V9.81746L15.2818 14.2766C15.3635 14.3516 15.4118 14.4541 15.4168 14.5658C15.4218 14.6766 15.3827 14.7833 15.3077 14.8658C15.2285 14.9516 15.1168 15.0008 15.0002 15.0008Z" fill="white"/>
</svg>
