<svg width="64" height="64" viewBox="0 0 64 64" fill="none" xmlns="http://www.w3.org/2000/svg">
<path fill-rule="evenodd" clip-rule="evenodd" d="M26.3348 12.291L26.3565 12.291H37.6436L37.6653 12.291C37.8297 12.291 37.9923 12.291 38.13 12.3067C38.2866 12.3246 38.4602 12.3669 38.6239 12.4849C38.7875 12.6028 38.8826 12.7542 38.9491 12.8971C39.0076 13.0228 39.0589 13.177 39.1109 13.333L39.1178 13.3536L40.898 18.6942H46.9408H51.2096C51.4857 18.6942 51.7096 18.9181 51.7096 19.1942C51.7096 19.4703 51.4857 19.6942 51.2096 19.6942H47.4086L45.5021 48.2917L45.4998 48.3258V48.3258C45.4551 48.9963 45.4183 49.5482 45.3316 49.9834C45.2406 50.4401 45.083 50.8362 44.749 51.1487C44.415 51.4612 44.0093 51.5921 43.5476 51.6525C43.1075 51.7101 42.5545 51.7101 41.8825 51.71H41.8824H41.8482H22.1519H22.1177H22.1176C21.4456 51.7101 20.8926 51.7101 20.4525 51.6525C19.9908 51.5921 19.5851 51.4612 19.2511 51.1487C18.9171 50.8362 18.7595 50.4401 18.6685 49.9834C18.5818 49.5482 18.545 48.9963 18.5003 48.3258L18.498 48.2917L16.5915 19.6942H12.7905C12.5144 19.6942 12.2905 19.4703 12.2905 19.1942C12.2905 18.9181 12.5144 18.6942 12.7905 18.6942H17.0593H23.1021L24.8823 13.3536L24.8892 13.333C24.9411 13.177 24.9925 13.0228 25.051 12.8971C25.1175 12.7542 25.2126 12.6028 25.3762 12.4849C25.5399 12.3669 25.7135 12.3246 25.8701 12.3067C26.0078 12.291 26.1704 12.291 26.3348 12.291ZM24.1562 18.6942H39.8439L38.1691 13.6698C38.1075 13.485 38.0738 13.3864 38.0424 13.3189C38.0395 13.3126 38.0368 13.3072 38.0345 13.3026C38.0311 13.3021 38.0274 13.3016 38.0233 13.301C38.0212 13.3008 38.0189 13.3005 38.0166 13.3002C37.9425 13.2918 37.8384 13.291 37.6436 13.291H26.3565C26.1617 13.291 26.0576 13.2918 25.9835 13.3002C25.9766 13.301 25.9707 13.3018 25.9656 13.3026C25.9632 13.3072 25.9606 13.3126 25.9577 13.3189C25.9262 13.3864 25.8926 13.485 25.831 13.6698L24.1562 18.6942ZM17.5938 19.6942L19.4958 48.2252C19.5434 48.9383 19.5768 49.4245 19.6492 49.7881C19.7188 50.1375 19.8124 50.3044 19.9343 50.4185C20.0561 50.5325 20.2289 50.6147 20.5822 50.661C20.9498 50.709 21.4371 50.71 22.1519 50.71H41.8482C42.563 50.71 43.0503 50.709 43.4178 50.661C43.7712 50.6147 43.9439 50.5325 44.0658 50.4185C44.1877 50.3044 44.2813 50.1375 44.3509 49.7881C44.4233 49.4245 44.4567 48.9383 44.5043 48.2252L46.4063 19.6942H40.5376H23.4625H17.5938ZM27.7314 27.2317C28.0076 27.2317 28.2314 27.4555 28.2314 27.7317V42.6724C28.2314 42.9485 28.0076 43.1724 27.7314 43.1724C27.4553 43.1724 27.2314 42.9485 27.2314 42.6724V27.7317C27.2314 27.4555 27.4553 27.2317 27.7314 27.2317ZM36.7686 27.7317C36.7686 27.4555 36.5448 27.2317 36.2686 27.2317C35.9925 27.2317 35.7686 27.4555 35.7686 27.7317V36.2692C35.7686 36.5454 35.9925 36.7692 36.2686 36.7692C36.5448 36.7692 36.7686 36.5454 36.7686 36.2692V27.7317Z" fill="#F7F7F7"/>
</svg>
