<svg width="22" height="22" viewBox="0 0 22 22" fill="none" xmlns="http://www.w3.org/2000/svg">
<path fill-rule="evenodd" clip-rule="evenodd" d="M3.10018 3.86067C2.92267 3.68316 2.63486 3.68316 2.45735 3.86067C2.27984 4.03818 2.27984 4.32599 2.45735 4.5035L4.58414 6.63028C4.27221 6.94214 4.01071 7.30443 3.81204 7.70476C3.58604 8.16014 3.48399 8.66485 3.43441 9.28536C3.38558 9.89655 3.38558 10.6579 3.38559 11.6361L3.38559 11.6562L3.38559 11.6763V11.6763C3.38558 12.6545 3.38558 13.4159 3.43441 14.0271C3.48399 14.6476 3.58604 15.1523 3.81204 15.6077C4.20924 16.408 4.85754 17.0563 5.6579 17.4535C6.11329 17.6795 6.618 17.7816 7.2385 17.8312C7.84967 17.88 8.611 17.88 9.58912 17.88H9.58915H9.58923H9.60936H9.62949H9.62952H9.62954C10.6077 17.88 11.369 17.88 11.9802 17.8312C12.6007 17.7816 13.1054 17.6795 13.5608 17.4535C13.9612 17.2549 14.3234 16.9934 14.6353 16.6814L17.4963 19.5425C17.6739 19.72 17.9617 19.72 18.1392 19.5425C18.3167 19.365 18.3167 19.0772 18.1392 18.8997L15.2057 15.9662C15.2784 15.8505 15.3455 15.7309 15.4067 15.6077C15.5184 15.3826 15.5998 15.1454 15.6596 14.8881L15.682 14.9049L15.6998 14.9183C16.0506 15.1814 16.3385 15.3973 16.5771 15.5451C16.8139 15.6917 17.0742 15.8191 17.3613 15.8175C17.7849 15.815 18.1832 15.6158 18.4394 15.2784C18.613 15.0497 18.6673 14.765 18.692 14.4876C18.7169 14.2081 18.7169 13.8483 18.7169 13.4098V13.4098V13.4097V13.3874L18.7169 10.5028V10.4805C18.7169 10.042 18.7169 9.68213 18.692 9.40261C18.6673 9.12522 18.613 8.84048 18.4394 8.61178C18.1832 8.27443 17.7849 8.07525 17.3613 8.07276C17.0742 8.07107 16.8138 8.19852 16.5771 8.34516C16.3497 8.48598 16.0775 8.68871 15.7488 8.93521C15.6902 8.46996 15.5886 8.07137 15.4067 7.70476C15.0095 6.9044 14.3612 6.25609 13.5608 5.85889C13.1054 5.63289 12.6007 5.53084 11.9802 5.48127C11.369 5.43244 10.6076 5.43244 9.62946 5.43244L9.60936 5.43244L9.58927 5.43244H9.58926C8.61107 5.43244 7.8497 5.43244 7.2385 5.48127C6.618 5.53084 6.11329 5.63289 5.6579 5.85889C5.53467 5.92005 5.41504 5.98716 5.29937 6.05987L3.10018 3.86067ZM5.22696 7.27311C4.98432 7.51568 4.7809 7.79749 4.62636 8.10889C4.47329 8.41732 4.38581 8.79212 4.34062 9.35776C4.29501 9.92853 4.29468 10.6537 4.29468 11.6562C4.29468 12.6587 4.29501 13.3839 4.34062 13.9547C4.38581 14.5203 4.47329 14.8951 4.62636 15.2035C4.93529 15.826 5.43953 16.3303 6.06203 16.6392C6.37047 16.7923 6.74526 16.8798 7.3109 16.925C7.88168 16.9706 8.60684 16.9709 9.60936 16.9709C10.6119 16.9709 11.337 16.9706 11.9078 16.925C12.4735 16.8798 12.8483 16.7923 13.1567 16.6392C13.4681 16.4847 13.7499 16.2813 13.9925 16.0386L5.22696 7.27311ZM14.5414 15.3019L5.96368 6.72418C5.99612 6.70664 6.02891 6.68965 6.06203 6.67321C6.37047 6.52014 6.74526 6.43266 7.3109 6.38747C7.88168 6.34187 8.60684 6.34153 9.60936 6.34153C10.6119 6.34153 11.337 6.34187 11.9078 6.38747C12.4735 6.43266 12.8483 6.52014 13.1567 6.67321C13.7792 6.98215 14.2834 7.48639 14.5924 8.10889C14.7454 8.41732 14.8329 8.79212 14.8781 9.35776C14.912 9.78242 14.9209 10.2925 14.9232 10.9388V10.9437V10.9499V10.9562V10.9624V10.9686V10.9749V10.9811V10.9873V10.9936V10.9998V11.006V11.0123V11.0185V11.0247V11.0309V11.0372V11.0434V11.0496V11.0559V11.0621V11.0683V11.0746V11.0808V11.087V11.0932V11.0995V11.1057V11.1119V11.1181V11.1244V11.1306V11.1368V11.143V11.1493V11.1555V11.1617V11.1679V11.1741V11.1804V11.1866V11.1928V11.199V11.2052V11.2114V11.2177V11.2239V11.2301V11.2363V11.2425V11.2487V11.2549V11.2611V11.2673V11.2735V11.2798V11.286V11.2922V11.2984V11.3046V11.3108V11.317V11.3232V11.3293V11.3355V11.3417V11.3479V11.3541V11.3603V11.3665V11.3727V11.3789V11.385V11.3912V11.3974V11.4036V11.4098V11.4159V11.4221V11.4283V11.4345V11.4406V11.4468V11.453V11.4591V11.4653V11.4714V11.4776V11.4838V11.4899V11.4961V11.5022V11.5084V11.5145V11.5207V11.5268V11.5329V11.5391V11.5452V11.5514V11.5575V11.5636V11.5698V11.5759V11.582V11.5881V11.5943V11.6004V11.6065V11.6126V11.6187V11.6248V11.6309V11.637V11.6431V11.6492V11.6553V11.6614V11.6675V11.6736V11.6797V11.6858V11.6919V11.698V11.704V11.7101V11.7162V11.7223V11.7283V11.7344V11.7404V11.7465V11.7526V11.7586V11.7647V11.7707V11.7768V11.7828V11.7888V11.7949V11.8009V11.8069V11.813V11.819V11.825V11.831V11.8371V11.8431V11.8491V11.8551V11.8611V11.8671V11.8731V11.8791V11.8851V11.8911V11.897V11.903V11.909V11.915V11.9209V11.9269V11.9329V11.9388V11.9448V11.9507V11.9567V11.9626V11.9686V11.9745V11.9805V11.9864V11.9923V11.9983V12.0042V12.0101V12.016V12.0219V12.0278V12.0337V12.0396V12.0455V12.0514V12.0573V12.0632V12.0691V12.0749V12.0808V12.0867V12.0925V12.0984V12.1043V12.1101V12.116V12.1218V12.1276V12.1335V12.1393V12.1451V12.151V12.1568V12.1626V12.1684V12.1742V12.18V12.1858V12.1916V12.1974V12.2032V12.2089V12.2147V12.2205V12.2263V12.232V12.2378V12.2435V12.2493V12.255V12.2608V12.2665V12.2722V12.2779V12.2837V12.2894V12.2951V12.3008V12.3065V12.3122V12.3179V12.3236V12.3293V12.3349V12.3406V12.3463V12.3519V12.3576V12.3632V12.3689V12.3737C14.9209 13.0199 14.912 13.53 14.8781 13.9547C14.8329 14.5203 14.7454 14.8951 14.5924 15.2035C14.5759 15.2367 14.5589 15.2695 14.5414 15.3019ZM15.8331 11.6773C15.8331 11.9275 15.8331 12.1636 15.8323 12.3865V12.3914V12.397V12.4027V12.4083V12.4139V12.4195V12.4251V12.4307V12.4362V12.4418V12.4474V12.453V12.4585V12.4641V12.4696V12.4752V12.4807V12.4863V12.4918V12.4973V12.5028V12.5083V12.5139V12.5194V12.5248V12.5303V12.5358V12.5413V12.5468V12.5522V12.5577V12.5632V12.5686V12.5741V12.5795V12.5849V12.5904V12.5958V12.6012V12.6066V12.612V12.6174V12.6228V12.6282V12.6336V12.6389V12.6443V12.6497V12.655V12.6604V12.6657V12.671V12.6764V12.6817V12.687V12.6923V12.6976V12.7029V12.7082V12.7135V12.7188V12.7241V12.7293V12.7346V12.7398V12.7451V12.7503V12.7555V12.7608V12.766V12.7712V12.7764V12.7816V12.7868V12.792V12.7972V12.8023V12.8075V12.8127V12.8178V12.823V12.8281V12.8332V12.8384V12.8435V12.8486V12.8537V12.8588V12.8639V12.869V12.874V12.8791V12.8842V12.8892V12.8943V12.8993V12.9043V12.9094V12.9144V12.9194V12.9244V12.9294V12.9344V12.9394V12.9443V12.9493V12.9543V12.9592V12.9642V12.9691V12.974V12.9789V12.9839V12.9888V12.9937V12.9986V13.0034V13.0083V13.0132V13.018V13.0229V13.0277V13.0326V13.0374V13.0422V13.047V13.0518V13.0566V13.0614V13.0662V13.071V13.0758V13.0805V13.0853V13.09V13.0947V13.0995V13.1042V13.1089V13.1136V13.1183V13.123V13.1277V13.1323V13.137V13.1416V13.1463V13.1509V13.1555V13.1602V13.1648V13.1694V13.174V13.1785V13.1831V13.1877V13.1923V13.1968V13.2013V13.2059V13.2104V13.2149V13.2194V13.2239V13.2284V13.2329V13.2374V13.2418L15.8323 13.2463V13.2507V13.2552V13.2596V13.264V13.2684V13.2728V13.2772V13.2816V13.286V13.2904V13.2947V13.2991V13.3034V13.3077V13.312V13.3164V13.3207V13.325V13.3292V13.3335V13.3378V13.342V13.3463V13.3505V13.3548V13.359V13.3632V13.3674V13.3716V13.3758V13.3799V13.3841V13.3882C15.8323 13.674 15.8362 13.7303 15.849 13.7761C15.8647 13.8322 15.891 13.8848 15.9265 13.931C15.9555 13.9688 15.9983 14.0058 16.2274 14.1776C16.6005 14.4574 16.8559 14.6484 17.0557 14.7722C17.2615 14.8996 17.3371 14.9085 17.356 14.9084C17.4972 14.9075 17.6299 14.8412 17.7153 14.7287C17.7267 14.7137 17.765 14.6478 17.7865 14.4068C17.8074 14.1726 17.8078 13.8537 17.8078 13.3874L17.8078 10.5028C17.8078 10.0365 17.8074 9.71759 17.7865 9.48341C17.765 9.24239 17.7267 9.17653 17.7153 9.16151C17.6299 9.04906 17.4972 8.98266 17.356 8.98183C17.3371 8.98172 17.2614 8.99062 17.0557 9.11803C16.8559 9.24182 16.6005 9.43281 16.2274 9.71262C15.9983 9.88445 15.9555 9.92148 15.9265 9.9592C15.891 10.0054 15.8647 10.058 15.849 10.1141C15.8362 10.1599 15.8323 10.2164 15.8323 10.5028V10.509V10.5151V10.5213V10.5275V10.5337V10.5399V10.546V10.5522V10.5584V10.5646V10.5708V10.577V10.5831V10.5893V10.5955V10.6017V10.6079V10.6141V10.6203V10.6265V10.6327V10.6389V10.6451V10.6513V10.6575V10.6637V10.6699V10.6761V10.6823V10.6885V10.6948V10.701V10.7072V10.7134V10.7196V10.7258V10.732V10.7383V10.7445V10.7507V10.7569V10.7631V10.7693V10.7756V10.7818V10.788V10.7942V10.8005V10.8067V10.8129V10.8191V10.8254V10.8316V10.8378V10.844V10.8503V10.8565V10.8627V10.8689V10.8752V10.8814V10.8876V10.8939V10.9001V10.9063V10.9126V10.9188V10.925V10.926C15.8331 11.1489 15.8331 11.385 15.8331 11.6352V11.6361V11.6361V11.6562V11.6763V11.6764V11.6773Z" fill="white"/>
</svg>
