<svg width="16" height="14" viewBox="0 0 16 14" fill="none" xmlns="http://www.w3.org/2000/svg">
<path fill-rule="evenodd" clip-rule="evenodd" d="M6.60952 0.750001L6.58942 0.750001L6.58942 0.750001C5.61123 0.749999 4.84985 0.749997 4.23866 0.798828C3.61815 0.848403 3.11344 0.950454 2.65806 1.17645C1.8577 1.57365 1.20939 2.22196 0.812192 3.02232C0.586194 3.4777 0.484143 3.98241 0.434568 4.60292C0.385737 5.21411 0.385739 5.97549 0.385741 6.95368L0.385741 6.97378L0.385741 6.99387L0.385741 6.99388C0.385739 7.97206 0.385737 8.73344 0.434568 9.34464C0.484143 9.96514 0.586194 10.4699 0.812192 10.9252C1.20939 11.7256 1.8577 12.3739 2.65806 12.7711C3.11344 12.9971 3.61815 13.0992 4.23866 13.1487C4.84984 13.1976 5.6112 13.1976 6.58936 13.1976L6.58939 13.1976L6.60952 13.1976L6.62965 13.1976L6.62967 13.1976C7.60783 13.1976 8.36919 13.1976 8.98038 13.1487C9.60088 13.0992 10.1056 12.9971 10.561 12.7711C11.3613 12.3739 12.0096 11.7256 12.4068 10.9252C12.5187 10.6998 12.6002 10.4624 12.66 10.2048L12.683 10.222L12.7009 10.2354C13.0517 10.4985 13.3396 10.7144 13.5781 10.8622C13.8149 11.0088 14.0752 11.1363 14.3624 11.1346C14.7859 11.1321 15.1843 10.9329 15.4404 10.5955C15.614 10.3668 15.6683 10.0821 15.693 9.80472C15.718 9.52522 15.718 9.16538 15.718 8.7269L15.718 8.72684L15.718 8.70452L15.718 5.81994L15.718 5.79763C15.718 5.35911 15.718 4.99925 15.693 4.71973C15.6683 4.44234 15.614 4.15759 15.4404 3.9289C15.1843 3.59154 14.7859 3.39236 14.3624 3.38988C14.0752 3.38819 13.8149 3.51564 13.5781 3.66228C13.3505 3.80322 13.0781 4.00619 12.749 4.25297C12.6904 3.78764 12.5888 3.38899 12.4068 3.02232C12.0096 2.22196 11.3613 1.57365 10.561 1.17645C10.1056 0.950454 9.60088 0.848403 8.98038 0.798828C8.36918 0.749997 7.6078 0.749999 6.62961 0.750001L6.60952 0.750001ZM3.06219 1.99078C3.37062 1.83771 3.74542 1.75022 4.31106 1.70503C4.88183 1.65943 5.607 1.65909 6.60952 1.65909C7.61204 1.65909 8.3372 1.65943 8.90798 1.70503C9.47362 1.75022 9.84841 1.83771 10.1568 1.99078C10.7793 2.29971 11.2836 2.80395 11.5925 3.42645C11.7456 3.73488 11.8331 4.10968 11.8783 4.67532C11.9239 5.24609 11.9242 5.97126 11.9242 6.97378C11.9242 7.9763 11.9239 8.70146 11.8783 9.27224C11.8331 9.83788 11.7456 10.2127 11.5925 10.5211C11.2836 11.1436 10.7793 11.6478 10.1568 11.9568C9.84841 12.1098 9.47362 12.1973 8.90798 12.2425C8.3372 12.2881 7.61204 12.2885 6.60952 12.2885C5.607 12.2885 4.88183 12.2881 4.31106 12.2425C3.74542 12.1973 3.37062 12.1098 3.06219 11.9568C2.43969 11.6478 1.93545 11.1436 1.62652 10.5211C1.47345 10.2127 1.38596 9.83788 1.34077 9.27224C1.29517 8.70146 1.29483 7.9763 1.29483 6.97378C1.29483 5.97126 1.29517 5.24609 1.34077 4.67532C1.38596 4.10968 1.47345 3.73488 1.62652 3.42645C1.93545 2.80395 2.43969 2.29971 3.06219 1.99078ZM13.2285 5.02973C13.6015 4.74993 13.8569 4.55894 14.0568 4.43515C14.2625 4.30774 14.3381 4.29884 14.357 4.29895C14.4982 4.29978 14.631 4.36617 14.7164 4.47863C14.7278 4.49365 14.766 4.55951 14.7876 4.80053C14.8085 5.0347 14.8089 5.3536 14.8089 5.81994L14.8089 8.70453C14.8089 9.17085 14.8085 9.48975 14.7876 9.72391C14.766 9.96493 14.7278 10.0308 14.7164 10.0458C14.631 10.1583 14.4982 10.2247 14.357 10.2255C14.3382 10.2256 14.2625 10.2167 14.0568 10.0893C13.8569 9.96552 13.6015 9.77453 13.2285 9.49474C12.9994 9.3229 12.9565 9.28587 12.9275 9.24815C12.892 9.20195 12.8657 9.14936 12.8501 9.09323C12.8373 9.04738 12.8334 8.99111 12.8334 8.70536L12.8334 8.7012L12.8334 8.69704L12.8334 8.69287L12.8334 8.68869L12.8334 8.6845L12.8334 8.6803L12.8334 8.67609L12.8334 8.67187L12.8334 8.66764L12.8334 8.6634L12.8334 8.65915L12.8334 8.6549L12.8334 8.65063L12.8334 8.64636L12.8334 8.64207L12.8334 8.63778L12.8334 8.63348L12.8334 8.62917L12.8334 8.62484L12.8334 8.62051L12.8334 8.61618L12.8334 8.61183L12.8334 8.60747L12.8334 8.6031L12.8334 8.59873L12.8334 8.59434L12.8334 8.58995L12.8334 8.58555L12.8334 8.58114L12.8334 8.57672L12.8334 8.57229L12.8334 8.56785L12.8334 8.56341L12.8334 8.55895L12.8334 8.55449L12.8334 8.55001L12.8334 8.54553L12.8334 8.54104L12.8334 8.53654L12.8334 8.53204L12.8334 8.52752L12.8334 8.52299L12.8334 8.51846L12.8334 8.51392L12.8334 8.50937L12.8334 8.50481L12.8334 8.50024L12.8334 8.49566L12.8334 8.49108L12.8334 8.48649L12.8334 8.48188L12.8334 8.47727L12.8334 8.47266L12.8334 8.46803L12.8334 8.46339L12.8334 8.45875L12.8334 8.4541L12.8334 8.44944L12.8334 8.44477L12.8334 8.44009L12.8334 8.43541L12.8334 8.43071L12.8334 8.42601L12.8334 8.4213L12.8334 8.41659L12.8334 8.41186L12.8334 8.40713L12.8334 8.40238L12.8334 8.39763L12.8334 8.39288L12.8334 8.38811L12.8334 8.38334L12.8334 8.37855L12.8334 8.37376L12.8334 8.36897L12.8334 8.36416L12.8334 8.35935L12.8334 8.35453L12.8334 8.3497L12.8334 8.34486L12.8334 8.34001L12.8334 8.33516L12.8334 8.3303L12.8334 8.32543L12.8334 8.32056L12.8334 8.31567L12.8334 8.31078L12.8334 8.30588L12.8334 8.30098L12.8334 8.29606L12.8334 8.29114L12.8334 8.28621L12.8334 8.28128L12.8334 8.27633L12.8334 8.27138L12.8334 8.26642L12.8334 8.26145L12.8334 8.25648L12.8334 8.2515L12.8334 8.24651L12.8334 8.24152L12.8334 8.23651L12.8334 8.2315L12.8334 8.22648L12.8334 8.22146L12.8334 8.21643L12.8334 8.21139L12.8334 8.20634L12.8334 8.20129L12.8334 8.19622L12.8334 8.19116L12.8334 8.18608L12.8334 8.181L12.8334 8.17591L12.8334 8.17081L12.8334 8.16571L12.8334 8.1606L12.8334 8.15548L12.8334 8.15035L12.8334 8.14522L12.8334 8.14008L12.8334 8.13494L12.8334 8.12979L12.8334 8.12463L12.8334 8.11946L12.8334 8.11429L12.8334 8.10911L12.8334 8.10392L12.8334 8.09873L12.8334 8.09353L12.8334 8.08832L12.8334 8.08311L12.8334 8.07789L12.8334 8.07267L12.8334 8.06743L12.8334 8.06219L12.8334 8.05695L12.8334 8.05169L12.8334 8.04643L12.8334 8.04117L12.8334 8.0359L12.8334 8.03062L12.8334 8.02533L12.8334 8.02004L12.8334 8.01474L12.8334 8.00944L12.8334 8.00413L12.8334 7.99881L12.8334 7.99349L12.8334 7.98816L12.8334 7.98282L12.8334 7.97748L12.8334 7.97213L12.8334 7.96678L12.8334 7.96142L12.8334 7.95605L12.8334 7.95068L12.8334 7.9453L12.8334 7.93991L12.8334 7.93452L12.8334 7.92913L12.8334 7.92372L12.8334 7.91831L12.8334 7.9129L12.8334 7.90748L12.8334 7.90205L12.8334 7.89662L12.8334 7.89118L12.8334 7.88573L12.8334 7.88028L12.8334 7.87483L12.8334 7.86936L12.8334 7.8639L12.8334 7.85842L12.8334 7.85294L12.8334 7.84746L12.8334 7.84197L12.8334 7.83647L12.8334 7.83097L12.8334 7.82546L12.8334 7.81995L12.8334 7.81443L12.8334 7.8089L12.8334 7.80337L12.8334 7.79784L12.8334 7.7923L12.8334 7.78675L12.8334 7.7812L12.8334 7.77564L12.8334 7.77008L12.8334 7.76451L12.8334 7.75894L12.8334 7.75336L12.8334 7.74777L12.8334 7.74218L12.8334 7.73659L12.8334 7.73099L12.8334 7.72538L12.8334 7.71977L12.8334 7.71415L12.8334 7.70853L12.8334 7.70291L12.8334 7.69728L12.8334 7.69164L12.8334 7.686L12.8334 7.68035L12.8334 7.6747L12.8334 7.66904L12.8334 7.66338L12.8334 7.65772L12.8334 7.65204L12.8334 7.64637L12.8334 7.64069L12.8334 7.635L12.8334 7.62931L12.8334 7.62361L12.8334 7.61791L12.8334 7.61221L12.8334 7.6065L12.8334 7.60078L12.8334 7.59506L12.8334 7.58934L12.8334 7.58361L12.8334 7.57787L12.8334 7.57214L12.8334 7.56639L12.8334 7.56064L12.8334 7.55489L12.8334 7.54913L12.8334 7.54337L12.8334 7.53761L12.8334 7.53184L12.8334 7.52606L12.8334 7.52028L12.8334 7.5145L12.8334 7.50871L12.8334 7.50292L12.8334 7.49712L12.8334 7.49132L12.8334 7.48551L12.8334 7.4797L12.8334 7.47389L12.8334 7.46807L12.8334 7.46225L12.8334 7.45642L12.8334 7.45059L12.8334 7.44475L12.8334 7.43892L12.8334 7.43307L12.8334 7.42722L12.8334 7.42137L12.8334 7.41552L12.8334 7.40966L12.8334 7.40379L12.8334 7.39793L12.8334 7.39205L12.8334 7.38618L12.8334 7.3803L12.8334 7.37441L12.8334 7.36853L12.8334 7.36264L12.8334 7.35674L12.8334 7.35084L12.8334 7.34494L12.8334 7.33903L12.8334 7.33312L12.8334 7.32721L12.8334 7.32129L12.8334 7.31537L12.8334 7.30944L12.8334 7.30351L12.8334 7.29758L12.8334 7.29165L12.8334 7.28571L12.8334 7.27976L12.8334 7.27382L12.8334 7.26787L12.8334 7.26191L12.8334 7.25596L12.8334 7.25L12.8334 7.24403L12.8334 7.23806L12.8334 7.23209L12.8334 7.22612L12.8334 7.22014L12.8334 7.21416L12.8334 7.20818L12.8334 7.20219L12.8334 7.1962L12.8334 7.1902L12.8334 7.18421L12.8334 7.17821L12.8334 7.1722L12.8334 7.1662L12.8334 7.16019L12.8334 7.15417L12.8334 7.14816L12.8334 7.14214L12.8334 7.13612L12.8334 7.13009L12.8334 7.12406L12.8334 7.11803L12.8334 7.112L12.8334 7.10596L12.8334 7.09992L12.8334 7.09388L12.8334 7.08784L12.8334 7.08179L12.8334 7.07574L12.8334 7.06968L12.8334 7.06363L12.8334 7.05757L12.8334 7.0515L12.8334 7.04544L12.8334 7.03937L12.8334 7.0333L12.8334 7.02723L12.8334 7.02115L12.8334 7.01507L12.8334 7.00899L12.8334 7.00291L12.8334 6.99683L12.8334 6.99074L12.8334 6.98465L12.8334 6.97855L12.8334 6.97246L12.8334 6.96636L12.8334 6.96026L12.8334 6.95416L12.8334 6.94805L12.8334 6.94194L12.8334 6.93583L12.8334 6.92972L12.8334 6.92361L12.8334 6.91749L12.8334 6.91137L12.8334 6.90525L12.8334 6.89913L12.8334 6.893L12.8334 6.88687L12.8334 6.88075L12.8334 6.87461L12.8334 6.86848L12.8334 6.86234L12.8334 6.85621L12.8334 6.85007L12.8334 6.84392L12.8334 6.83778L12.8334 6.83163L12.8334 6.82549L12.8334 6.81934L12.8334 6.81319L12.8334 6.80703L12.8334 6.80088L12.8334 6.79472L12.8334 6.78856L12.8334 6.7824L12.8334 6.77624L12.8334 6.77007L12.8334 6.76391L12.8334 6.75774L12.8334 6.75157L12.8334 6.7454L12.8334 6.73923L12.8334 6.73305L12.8334 6.72688L12.8334 6.7207L12.8334 6.71452L12.8334 6.70834L12.8334 6.70216L12.8334 6.69598L12.8334 6.68979L12.8334 6.68361L12.8334 6.67742L12.8334 6.67123L12.8334 6.66504L12.8334 6.65885L12.8334 6.65266L12.8334 6.64646L12.8334 6.64027L12.8334 6.63407L12.8334 6.62787L12.8334 6.62167L12.8334 6.61547L12.8334 6.60927L12.8334 6.60307L12.8334 6.59687L12.8334 6.59066L12.8334 6.58446L12.8334 6.57825L12.8334 6.57204L12.8334 6.56583L12.8334 6.55962L12.8334 6.55341L12.8334 6.5472L12.8334 6.54099L12.8334 6.53478L12.8334 6.52856L12.8334 6.52235L12.8334 6.51613L12.8334 6.50991L12.8334 6.5037L12.8334 6.49748L12.8334 6.49126L12.8334 6.48504L12.8334 6.47882L12.8334 6.4726L12.8334 6.46637L12.8334 6.46015L12.8334 6.45393L12.8334 6.44771L12.8334 6.44148L12.8334 6.43526L12.8334 6.42903L12.8334 6.42281L12.8334 6.41658L12.8334 6.41035L12.8334 6.40412L12.8334 6.3979L12.8334 6.39167L12.8334 6.38544L12.8334 6.37921L12.8334 6.37298L12.8334 6.36675L12.8334 6.36052L12.8334 6.35429L12.8334 6.34806L12.8334 6.34183L12.8334 6.3356L12.8334 6.32937L12.8334 6.32314L12.8334 6.31691L12.8334 6.31068L12.8334 6.30445L12.8334 6.29821L12.8334 6.29198L12.8334 6.28575L12.8334 6.27952L12.8334 6.27329L12.8334 6.26706L12.8334 6.26083L12.8334 6.2546L12.8334 6.24836L12.8334 6.24213L12.8334 6.2359L12.8334 6.22967L12.8334 6.22344L12.8334 6.21721L12.8334 6.21098L12.8334 6.20475L12.8334 6.19852L12.8334 6.19229L12.8334 6.18606L12.8334 6.17983L12.8334 6.17361L12.8334 6.16738L12.8334 6.16115L12.8334 6.15492L12.8334 6.1487L12.8334 6.14247L12.8334 6.13625L12.8334 6.13002L12.8334 6.1238L12.8334 6.11757L12.8334 6.11135L12.8334 6.10513L12.8334 6.0989L12.8334 6.09268L12.8334 6.08646L12.8334 6.08024L12.8334 6.07402L12.8334 6.0678L12.8334 6.06159L12.8334 6.05537L12.8334 6.04915L12.8334 6.04294L12.8334 6.03672L12.8334 6.03051L12.8334 6.0243L12.8334 6.01809L12.8334 6.01187L12.8334 6.00566L12.8334 5.99946L12.8334 5.99325L12.8334 5.98704L12.8334 5.98083L12.8334 5.97463L12.8334 5.96843L12.8334 5.96222L12.8334 5.95602L12.8334 5.94982L12.8334 5.94362L12.8334 5.93742L12.8334 5.93123L12.8334 5.92503L12.8334 5.91884L12.8334 5.91264L12.8334 5.90645L12.8334 5.90026L12.8334 5.89407L12.8334 5.88788L12.8334 5.8817L12.8334 5.87551L12.8334 5.86933L12.8334 5.86315L12.8334 5.85697L12.8334 5.85079L12.8334 5.84461L12.8334 5.83844L12.8334 5.83226L12.8334 5.82609L12.8334 5.81992C12.8334 5.53355 12.8373 5.47707 12.8501 5.43124C12.8657 5.37511 12.892 5.32252 12.9275 5.27632C12.9565 5.2386 12.9994 5.20157 13.2285 5.02973Z" fill="white"/>
</svg>
